<?xml version="1.0" standalone="no"?>
<!DOCTYPE svg PUBLIC "-//W3C//DTD SVG 20010904//EN"
 "http://www.w3.org/TR/2001/REC-SVG-20010904/DTD/svg10.dtd">
<svg version="1.0" xmlns="http://www.w3.org/2000/svg"
 width="1024.000000pt" height="1024.000000pt" viewBox="0 0 1024.000000 1024.000000"
 preserveAspectRatio="xMidYMid meet">

<g transform="translate(0.000000,1024.000000) scale(0.100000,-0.100000)"
fill="#000000" stroke="none">
<path d="M5187 9794 c-21 -41 -42 -58 -127 -100 -101 -50 -157 -111 -223 -245
l-53 -106 42 -23 c45 -23 70 -47 99 -93 14 -22 15 -26 3 -22 -9 4 -18 -1 -21
-9 -4 -11 1 -18 19 -22 28 -7 60 -64 90 -157 17 -54 17 -59 1 -92 -21 -44 -21
-42 3 -48 16 -4 20 -14 21 -49 1 -23 1 -51 0 -60 -2 -13 8 -18 46 -21 l48 -3
-47 -2 c-47 -2 -48 -3 -49 -34 -1 -18 -2 -49 -4 -68 -4 -66 5 -90 34 -90 15 0
35 -6 45 -13 16 -12 16 -13 -3 -14 -11 -1 -23 2 -26 8 -4 5 -12 9 -18 9 -7 0
-6 -4 3 -11 11 -8 7 -9 -17 -4 -34 7 -50 -6 -29 -24 10 -8 12 -29 8 -79 -5
-82 0 -88 95 -107 37 -7 59 -14 48 -16 -32 -3 -87 2 -124 11 -44 12 -57 3 -34
-22 14 -15 18 -37 18 -91 l0 -72 63 -13 c34 -8 62 -17 62 -21 0 -8 -98 3 -137
15 -29 8 -30 -9 -3 -27 18 -12 19 -19 10 -49 -23 -80 -2 -127 66 -141 29 -6
21 -7 -28 -3 -54 4 -68 3 -68 -8 0 -8 5 -19 12 -26 16 -16 17 -132 1 -132 -15
0 -17 -46 -3 -55 15 -9 12 -25 -4 -25 -20 0 -30 -18 -18 -33 6 -7 10 -29 10
-50 0 -31 -5 -40 -28 -52 -40 -20 -60 -53 -54 -84 8 -37 -25 -67 -55 -51 -18
9 -22 7 -30 -13 -14 -36 -75 -71 -109 -62 -63 15 -92 17 -92 5 0 -7 -7 -10
-16 -6 -9 4 -22 2 -28 -2 -6 -5 -25 -14 -42 -20 -27 -8 -34 -7 -48 10 -20 22
-52 20 -48 -4 4 -25 -12 -29 -47 -12 -25 13 -35 13 -46 4 -12 -10 -15 -9 -15
8 0 28 -25 34 -51 11 -13 -11 -30 -17 -41 -13 -10 3 -18 1 -18 -4 0 -6 -13
-14 -28 -20 -23 -8 -32 -6 -55 14 -16 14 -41 24 -58 24 -31 0 -68 31 -69 58 0
6 -4 12 -8 12 -4 0 -19 18 -32 40 -14 22 -28 40 -31 40 -15 0 -56 -63 -105
-161 -39 -77 -67 -119 -97 -145 l-43 -38 50 -40 c57 -47 102 -123 155 -263 22
-58 44 -101 58 -110 20 -14 21 -13 21 20 0 19 7 49 17 66 19 37 130 151 147
151 6 0 19 -7 29 -15 15 -14 18 -14 32 0 9 8 19 15 24 15 8 0 40 -45 61 -85
10 -19 11 -19 21 8 6 16 11 34 11 41 0 21 22 34 71 41 l46 7 16 -49 c10 -30
16 -40 16 -25 1 41 28 81 50 75 11 -3 23 -14 26 -24 8 -25 26 -24 61 3 20 17
26 18 22 6 -9 -21 10 -38 44 -38 36 0 36 -19 -2 -55 -30 -28 -39 -68 -20 -80
6 -3 10 -16 10 -29 0 -32 -20 -87 -30 -81 -4 3 -13 -2 -20 -10 -10 -12 -10
-24 -1 -56 7 -22 9 -49 6 -60 -6 -18 -4 -19 14 -10 11 6 24 18 29 27 7 13 11
13 31 -3 l22 -18 -30 -62 c-33 -66 -38 -84 -19 -65 7 7 16 12 20 12 14 0 9
-83 -6 -112 -8 -15 -16 -38 -18 -50 -2 -19 2 -23 22 -23 24 0 25 -3 26 -62 1
-37 -4 -70 -11 -80 -11 -14 -10 -23 2 -46 8 -17 16 -67 18 -125 3 -53 7 -136
10 -184 l6 -87 -58 -1 c-101 -3 -115 -1 -129 17 -22 28 -13 66 16 73 l25 6
-29 27 c-34 32 -43 33 -49 10 -4 -15 -6 -14 -12 5 -6 18 -10 20 -21 11 -11 -9
-15 -8 -20 5 -3 9 -4 23 -1 31 4 8 2 17 -4 20 -5 4 -9 16 -8 28 1 12 1 40 0
62 l-2 40 -16 -30 -17 -30 -8 34 c-12 44 -6 97 10 94 6 -2 12 2 12 8 0 6 -6 9
-14 6 -18 -7 -28 54 -25 161 2 79 -3 102 -22 102 -6 0 -7 -9 -3 -22 7 -24 12
-109 16 -299 2 -98 -1 -131 -12 -144 -16 -19 -19 -51 -7 -77 5 -12 3 -18 -5
-18 -23 0 -33 15 -35 50 -2 49 -2 50 -12 50 -5 0 -12 -12 -15 -26 -4 -15 -10
-24 -13 -20 -3 3 -12 1 -18 -4 -14 -11 -21 31 -24 135 -2 39 -8 66 -19 78 -15
17 -16 17 -28 -5 -7 -12 -10 -27 -7 -31 7 -12 -18 -87 -29 -87 -4 0 -8 -9 -8
-20 0 -34 -14 -22 -38 33 -18 42 -22 70 -22 147 0 59 -4 90 -9 85 -14 -14 -15
-145 -3 -176 11 -29 -3 -99 -20 -99 -5 0 -7 4 -3 9 3 5 1 12 -5 16 -5 3 -10
47 -10 98 0 86 -6 126 -31 220 -12 44 -29 49 -29 8 0 -50 -22 -130 -38 -136
-11 -4 -13 0 -9 16 5 19 4 20 -12 5 -17 -16 -18 -13 -24 51 -4 38 -7 95 -7
128 0 51 -34 262 -44 272 -2 2 -6 -36 -9 -83 -4 -77 -8 -90 -28 -105 -22 -17
-24 -17 -31 -1 -4 9 -8 44 -9 77 l-2 60 -8 -80 c-5 -44 -12 -113 -16 -153 -8
-76 -26 -101 -31 -43 -2 20 2 37 10 42 9 6 10 9 1 9 -19 0 -33 34 -39 97 -14
124 -19 148 -34 148 -11 0 -13 -13 -11 -57 1 -36 -2 -58 -8 -58 -6 0 -11 22
-12 53 -4 203 -10 310 -18 325 -5 10 -13 50 -16 89 -4 39 -15 82 -24 96 -16
24 -16 24 -18 -37 -5 -126 -17 -186 -39 -186 -11 0 -14 17 -14 75 0 52 -5 86
-17 108 -9 18 -20 64 -24 102 -19 189 -44 385 -49 385 -3 0 -6 -33 -8 -73 -1
-39 -10 -110 -18 -157 -19 -100 -22 -123 -23 -172 -1 -20 -8 -43 -16 -52 -8
-8 -16 -21 -17 -28 -1 -7 -4 14 -8 47 l-7 60 -3 -85 c-3 -81 -4 -103 -9 -125
-3 -15 -30 86 -31 115 0 17 -3 21 -11 13 -6 -6 -13 -81 -16 -177 -6 -156 -7
-166 -26 -166 -14 0 -18 -5 -14 -20 3 -11 1 -18 -4 -14 -5 3 -9 -2 -9 -10 0
-10 6 -13 15 -10 12 5 13 2 7 -17 -5 -13 -14 -25 -19 -26 -16 -6 -23 34 -23
136 0 173 -18 88 -39 -184 -9 -119 -28 -205 -48 -218 -7 -4 -13 -27 -13 -52 0
-25 -4 -45 -9 -45 -12 0 -22 72 -20 153 1 40 -3 73 -10 80 -8 8 -11 4 -11 -16
0 -31 -19 -35 -43 -9 -16 18 -34 81 -40 142 -2 19 -5 -4 -5 -52 -2 -71 -5 -88
-17 -88 -10 0 -15 -10 -15 -27 -1 -66 -11 -229 -15 -240 -12 -35 -75 9 -75 52
0 14 -4 25 -10 25 -5 0 -10 -13 -10 -29 0 -35 -16 -81 -28 -81 -4 0 -14 23
-21 50 -7 28 -17 50 -22 50 -5 0 -9 -37 -9 -82 -1 -101 -9 -190 -20 -202 -5
-4 -13 11 -18 35 -9 39 -10 40 -12 14 -1 -16 -4 -24 -7 -16 -9 23 -33 -46 -33
-95 0 -24 -5 -44 -11 -44 -15 0 -46 77 -65 161 -9 41 -22 101 -30 134 -26 118
-28 250 -5 352 12 51 21 106 21 123 0 16 4 30 9 30 7 0 19 29 19 46 0 3 13 19
28 35 15 16 24 29 20 29 -4 0 1 12 12 28 10 15 24 37 31 49 10 20 9 21 -17 14
-23 -7 -91 -6 -98 2 -1 1 -4 105 -7 230 -3 126 -7 231 -10 234 -3 3 -11 2 -18
-3 -9 -5 -11 -76 -6 -303 6 -316 2 -362 -40 -407 -12 -13 -33 -24 -47 -24 -27
0 -56 -23 -56 -45 0 -23 -22 -29 -36 -10 -20 28 -23 16 -12 -45 13 -71 6 -156
-15 -177 -14 -14 -18 -12 -48 30 -30 43 -49 52 -49 24 0 -7 15 -35 34 -62 50
-76 96 -173 112 -240 16 -69 18 -143 4 -165 -9 -15 -20 -6 -71 60 l-20 25 5
-65 c8 -102 9 -110 19 -110 4 0 5 -4 2 -10 -3 -5 -1 -10 5 -10 7 0 10 -6 7
-12 -2 -7 0 -23 4 -35 5 -14 5 -23 -1 -23 -6 0 -10 7 -10 15 0 7 -6 18 -14 22
-7 4 -25 32 -40 61 -21 41 -23 52 -11 52 8 0 15 5 15 11 0 5 -5 7 -10 4 -16
-10 -65 45 -95 107 -25 51 -30 55 -46 45 -15 -9 -24 -9 -39 1 -23 14 -60 16
-60 3 0 -21 94 -232 135 -303 25 -43 45 -81 45 -86 0 -5 -15 -15 -32 -24 -33
-16 -33 -16 -71 21 -38 36 -38 36 -32 9 4 -16 3 -28 -2 -28 -9 0 -67 58 -121
123 -18 21 -32 33 -32 28 0 -5 -8 -17 -17 -27 -17 -16 -16 -18 2 -28 27 -15
195 -188 194 -201 0 -5 -6 -18 -13 -28 -11 -14 -18 -16 -41 -7 -23 9 -28 7
-32 -9 -3 -10 -14 -23 -26 -28 -20 -9 -20 -10 -1 -27 10 -9 37 -31 58 -47 86
-65 102 -149 27 -149 -16 0 -41 18 -77 55 -30 30 -58 55 -64 55 -18 0 -11 -56
10 -83 21 -27 15 -42 -10 -26 -8 5 -31 9 -51 9 -61 0 -78 -39 -34 -80 14 -13
25 -33 25 -44 0 -12 7 -34 15 -50 9 -16 14 -44 13 -63 -1 -18 3 -38 10 -45 19
-19 14 -35 -13 -42 -36 -9 -35 -46 1 -46 24 0 26 -3 20 -31 -3 -17 -1 -40 6
-52 7 -12 11 -30 9 -39 -1 -13 2 -16 13 -12 25 10 18 -17 -18 -66 -18 -25 -41
-47 -52 -48 -10 -2 -23 -9 -29 -14 -7 -7 -2 -9 16 -4 18 4 29 1 32 -8 6 -15
-22 -46 -41 -46 -17 0 -15 -20 3 -26 8 -4 15 -18 15 -34 0 -49 12 -90 27 -90
7 0 27 -10 43 -22 42 -30 40 -69 -4 -113 -50 -50 -57 -156 -7 -111 47 43 84 0
111 -128 11 -54 20 -111 20 -127 0 -16 5 -29 10 -29 17 0 11 -26 -10 -45 -19
-18 -27 -65 -13 -79 7 -7 5 -74 -4 -110 -3 -12 -4 -30 -3 -41 1 -11 1 -47 1
-80 -1 -33 1 -70 4 -83 8 -33 142 -117 227 -143 49 -14 99 -41 164 -85 120
-84 183 -109 324 -128 142 -20 190 -20 217 -1 12 8 39 19 60 23 31 7 38 12 36
30 -2 17 3 22 20 22 27 0 57 -29 82 -80 21 -42 54 -80 70 -80 6 0 30 -14 52
-30 23 -17 67 -39 99 -50 63 -22 135 -65 202 -119 46 -38 53 -60 22 -68 -21
-6 -26 -32 -11 -61 13 -26 29 -64 41 -96 l11 -29 -65 5 c-88 7 -186 54 -254
121 -58 58 -66 53 -23 -15 32 -51 95 -98 156 -118 47 -16 177 -39 256 -47 65
-5 172 18 203 45 15 12 17 13 9 2 -10 -13 -8 -18 7 -28 12 -7 21 -8 25 -2 3 6
1 10 -4 10 -6 0 -11 5 -11 11 0 17 22 5 39 -21 9 -13 11 -21 5 -17 -16 10 -26
-21 -14 -43 9 -18 64 -42 123 -55 22 -4 27 -10 22 -23 -13 -32 -17 -82 -6 -82
6 0 11 3 11 8 1 4 9 17 20 30 l19 23 38 -29 c21 -17 48 -33 61 -37 13 -4 31
-20 41 -36 17 -28 18 -28 35 -10 14 15 24 17 59 11 23 -5 45 -6 49 -4 5 3 8 0
8 -6 0 -18 50 -79 71 -85 10 -4 19 -13 19 -21 0 -7 17 -25 37 -38 21 -13 58
-43 82 -65 24 -23 50 -41 57 -41 14 0 17 96 18 570 1 167 -14 479 -25 520 -5
19 -27 55 -50 80 -48 54 -89 115 -89 132 1 7 8 0 16 -15 15 -29 40 -28 29 1
-4 11 3 8 20 -8 23 -21 25 -22 19 -5 -7 18 -6 18 9 6 14 -11 18 -11 23 3 3 9
4 26 1 38 -3 12 1 37 9 56 14 34 14 35 -4 19 -26 -24 -32 -21 -32 13 0 17 5
30 10 30 6 0 10 5 10 11 0 5 -4 7 -10 4 -5 -3 -10 0 -10 7 0 7 5 28 10 46 6
17 14 45 19 62 13 40 4 38 -15 -2 -14 -32 -15 -32 -9 32 3 36 1 79 -4 97 -10
33 6 61 25 45 4 -4 2 1 -5 11 -10 12 -17 15 -25 7 -13 -13 -26 -13 -26 1 0 7
-8 18 -17 25 -10 7 -15 16 -11 20 4 4 13 2 20 -3 24 -19 58 -21 89 -6 17 8 32
13 34 12 6 -7 10 -207 4 -213 -3 -4 -4 -41 -1 -84 3 -54 9 -81 20 -90 14 -11
14 -12 -2 -12 -9 0 -15 -4 -12 -8 3 -5 7 -278 10 -608 7 -739 14 -1027 29
-1079 6 -22 12 -47 13 -55 0 -8 2 -21 3 -27 0 -7 7 -13 14 -13 7 0 29 -13 49
-30 46 -38 43 -70 -8 -70 l-34 0 0 -50 c0 -29 5 -50 11 -50 6 0 8 -11 5 -28
-4 -18 0 -39 14 -62 27 -47 51 -97 100 -210 23 -52 51 -115 62 -139 10 -24 44
-104 74 -179 31 -74 78 -181 106 -236 l51 -101 17 55 c15 49 96 228 193 428
20 40 41 89 48 110 6 20 24 62 40 93 15 31 26 59 23 62 -10 10 30 78 44 72 9
-3 12 1 8 13 -4 12 3 26 19 40 15 14 25 17 26 9 0 -6 7 4 14 23 17 44 19 140
3 140 -6 0 -4 7 5 18 22 25 23 56 1 48 -9 -4 -22 -2 -28 3 -6 5 -30 11 -54 14
-58 6 -66 17 -13 17 36 0 44 4 49 23 6 20 7 20 12 -7 6 -33 18 -40 40 -26 18
11 28 120 29 313 1 77 5 127 11 127 6 0 10 -5 10 -11 0 -5 4 -8 9 -4 5 3 13 1
16 -5 9 -14 47 10 95 58 76 76 190 152 242 162 28 6 52 10 53 10 2 0 6 -11 9
-25 9 -34 26 -32 26 3 0 16 8 36 18 44 9 9 37 34 61 57 24 23 47 41 51 41 7 0
84 -161 95 -200 15 -51 48 -120 56 -115 4 3 3 18 -2 33 -6 15 -20 58 -31 97
-10 38 -23 74 -27 80 -5 5 -12 21 -16 35 -4 14 -16 36 -27 49 -22 29 -21 30
72 84 72 41 101 69 87 83 -4 4 -18 -3 -32 -16 -17 -16 -25 -19 -25 -9 0 12 -2
11 -10 -1 -9 -13 -10 -13 -10 0 1 16 75 56 100 53 9 -2 10 0 3 3 -7 3 -9 12
-6 20 7 19 23 18 23 -1 0 -9 9 -15 25 -15 14 0 45 -10 68 -21 36 -19 48 -20
95 -12 46 9 54 8 62 -7 5 -10 9 -75 8 -146 -2 -92 1 -129 10 -132 9 -3 8 -7
-2 -17 -17 -18 -17 -186 0 -192 19 -6 22 32 20 271 l-2 228 44 -5 c90 -10 232
66 315 169 26 32 54 60 61 62 14 3 26 32 26 63 0 23 -48 22 -60 -2 -6 -10 -10
-29 -10 -42 0 -16 -18 -41 -52 -75 -64 -63 -80 -74 -157 -112 -75 -38 -108
-39 -117 -5 -3 14 -4 32 -1 40 4 8 2 17 -4 21 -5 3 -7 13 -4 23 2 9 1 31 -4
48 -6 21 -5 35 2 42 9 9 8 17 -1 31 -16 26 -15 30 7 30 11 0 31 11 45 24 14
13 47 34 73 47 26 13 54 30 61 37 7 6 21 12 30 13 34 1 54 8 71 23 10 9 22 16
27 16 21 0 113 97 139 147 25 47 45 62 83 63 6 0 12 -11 12 -24 0 -19 10 -29
45 -46 42 -20 57 -21 227 -18 l183 3 100 52 c56 29 114 66 130 81 17 16 78 52
136 80 58 29 114 61 124 72 10 11 24 20 31 20 7 0 26 12 43 26 27 22 31 33 31
72 0 26 -5 76 -11 112 -6 36 -12 172 -13 303 -1 256 0 265 48 253 29 -7 53 13
62 51 6 21 1 31 -25 52 -35 29 -39 41 -13 41 13 1 11 6 -11 24 -42 34 -47 116
-8 116 27 0 33 12 15 31 -9 10 -14 30 -12 46 3 24 9 29 48 39 31 7 46 16 48
30 2 10 8 23 13 29 16 16 10 24 -29 34 -29 8 -40 18 -50 43 -13 35 -12 36 33
63 16 10 16 14 1 58 -9 26 -16 56 -16 66 0 10 -8 22 -17 25 -14 6 -12 9 12 22
16 8 35 12 42 10 9 -4 13 4 13 23 0 16 7 34 15 41 9 7 12 22 9 40 -4 15 -1 31
5 34 14 9 14 49 0 63 -9 9 -5 18 16 37 41 38 28 53 -52 61 -37 4 -77 11 -88
15 -11 4 -43 3 -72 -3 -40 -8 -58 -8 -76 2 -14 7 -34 10 -46 6 -17 -5 -21 -2
-21 14 0 11 -4 23 -10 26 -5 3 -10 22 -10 41 0 19 -5 34 -11 34 -5 0 -7 5 -4
11 4 5 17 9 28 8 23 -2 32 1 107 31 38 16 45 23 48 49 2 17 -1 31 -7 31 -5 0
-16 7 -24 15 -13 13 -16 11 -21 -11 -4 -15 -11 -22 -18 -18 -8 5 -9 2 -5 -9 4
-11 1 -17 -8 -17 -11 0 -12 6 -6 23 5 12 14 21 21 19 7 -1 10 3 8 10 -3 7 0
18 7 23 33 29 115 134 115 148 0 23 -23 21 -45 -3 -22 -24 -34 -25 -50 -4 -10
15 -25 3 -119 -91 -58 -59 -109 -105 -113 -101 -4 3 -1 12 5 18 7 7 12 22 12
35 0 15 6 23 16 23 14 0 14 -3 4 -15 -11 -13 -10 -14 4 -9 10 4 15 13 11 24
-7 23 14 38 26 19 7 -11 9 -9 9 8 0 16 -5 20 -20 16 -11 -3 -20 -1 -20 3 0 5
21 50 47 101 l48 92 -30 31 c-16 16 -35 30 -42 30 -7 0 -13 4 -13 9 0 5 -7 11
-15 15 -12 4 -14 0 -9 -19 7 -30 -45 -133 -58 -113 -5 8 -8 3 -8 -16 0 -31
-10 -31 -14 1 -2 10 6 24 16 31 10 8 18 21 17 30 -3 29 1 43 9 38 4 -2 8 18 7
46 0 37 -5 54 -18 62 -14 9 -24 3 -62 -36 -43 -46 -45 -47 -56 -26 -8 16 -8
22 1 28 7 5 10 15 7 24 -4 9 -2 46 2 84 7 51 20 85 55 146 25 44 43 83 40 88
-4 5 -17 7 -30 4 -21 -6 -24 -3 -24 19 0 18 -5 25 -20 25 -11 0 -20 -1 -20 -2
-1 -24 -131 -352 -142 -356 -4 -2 -6 -8 -3 -13 10 -15 -9 -39 -23 -30 -11 6
-7 28 16 107 16 54 39 131 50 169 11 39 27 87 36 108 14 32 14 37 1 37 -17 0
-35 30 -35 61 0 44 -18 4 -23 -51 -3 -30 -23 -131 -46 -223 -34 -141 -51 -190
-79 -236 -1 -3 -9 4 -17 15 -14 18 -15 18 -8 0 4 -13 2 -17 -8 -14 -9 3 -15
21 -16 49 -2 24 -7 53 -12 64 -5 11 -12 37 -16 58 -6 40 -12 45 -29 23 -6 -8
-24 -16 -41 -18 -23 -2 -33 -10 -42 -33 l-11 -30 -2 40 -1 40 -12 -35 c-8 -22
-19 -36 -32 -38 -15 -2 -17 -1 -6 6 9 7 14 30 13 71 0 34 4 61 9 61 5 0 9 5 9
11 0 5 -4 8 -9 5 -5 -4 -12 7 -16 24 -5 21 -13 30 -26 30 -10 0 -19 -4 -19
-10 0 -5 -8 -10 -17 -10 -17 1 -17 2 0 15 17 12 18 16 3 47 -8 18 -16 42 -16
53 0 72 -7 108 -20 100 -6 -3 -10 3 -10 14 0 12 -5 21 -11 21 -8 0 -8 5 1 15
9 10 9 15 1 15 -6 0 -11 7 -11 15 0 21 -28 75 -39 75 -5 0 -33 -23 -62 -51
l-54 -52 -1 -116 c-1 -64 -2 -123 -4 -131 -2 -8 0 -31 4 -50 6 -31 5 -33 -7
-17 -13 16 -15 16 -21 1 -3 -8 -6 -49 -6 -90 0 -59 -3 -72 -14 -68 -8 3 -17 1
-20 -4 -3 -6 1 -13 9 -16 10 -3 15 -16 13 -35 -2 -25 -6 -30 -25 -29 -28 3
-35 20 -23 53 6 16 6 25 0 25 -6 0 -10 -7 -10 -15 0 -8 -4 -15 -10 -15 -14 0
-17 18 -37 227 -6 67 -23 77 -23 13 0 -49 -8 -70 -24 -64 -13 5 -26 -54 -26
-120 0 -25 -4 -32 -20 -32 -15 0 -21 9 -26 43 -3 23 -12 50 -19 59 -11 16 -14
11 -24 -35 -6 -28 -11 -59 -11 -66 0 -8 -4 -15 -10 -15 -5 0 -10 6 -10 13 0 8
-4 7 -10 -3 -8 -12 -10 -8 -11 15 l-1 30 -7 -29 c-3 -16 -10 -31 -16 -33 -15
-4 -36 46 -42 102 -7 61 -13 71 -13 22 0 -20 -4 -39 -10 -42 -6 -4 -10 7 -10
24 0 17 -4 31 -8 31 -17 0 -32 -25 -32 -53 0 -24 -3 -28 -17 -22 -15 5 -16 4
-5 -6 6 -7 12 -20 12 -28 0 -11 -3 -12 -11 -4 -14 14 -39 6 -57 -16 -11 -14
-14 -14 -22 -1 -6 8 -13 32 -16 53 -5 28 -13 41 -30 47 -16 6 -21 15 -17 28 2
11 0 23 -6 26 -10 7 -16 -19 -12 -51 1 -7 -3 -13 -9 -13 -8 0 -9 11 -5 33 5
24 4 28 -4 17 -7 -10 -11 -11 -11 -2 0 19 -24 14 -43 -8 -11 -13 -18 -39 -18
-69 -1 -34 -7 -51 -19 -59 -15 -9 -17 -8 -13 11 4 18 3 19 -6 7 -8 -12 -11 -8
-11 18 0 17 -4 32 -10 32 -5 0 -10 -11 -10 -24 0 -14 -7 -31 -15 -40 -8 -8
-15 -20 -15 -26 0 -15 -25 -7 -26 8 -1 7 -2 20 -3 30 -1 14 -5 14 -21 -7 -11
-13 -20 -29 -20 -37 0 -17 -33 -35 -47 -26 -18 12 -36 55 -42 106 l-7 51 -12
-50 c-24 -98 -31 -115 -47 -115 -8 0 -18 21 -25 56 -7 32 -16 54 -23 51 -6 -2
-19 -30 -28 -63 -15 -50 -25 -65 -20 -29 1 6 -7 -1 -17 -14 -31 -39 -55 -25
-68 39 -11 53 -12 54 -22 28 -6 -14 -23 -38 -39 -53 -15 -15 -22 -24 -15 -21
7 5 12 1 12 -9 0 -12 -7 -15 -28 -12 -17 3 -36 -2 -50 -13 -25 -20 -28 -31 -9
-27 6 1 12 -5 12 -13 1 -28 16 -42 41 -36 24 6 29 -1 25 -33 -2 -7 2 -10 8 -6
6 3 11 14 12 23 0 14 2 14 6 2 10 -25 25 -29 42 -11 9 9 13 12 8 5 -5 -8 14
-11 75 -9 58 2 72 1 48 -5 -27 -6 -29 -8 -11 -9 13 0 22 -4 19 -7 -3 -3 -29
-1 -57 4 -28 5 -51 6 -51 2 0 -8 -222 -5 -270 3 -14 3 -31 5 -39 6 -11 1 -12
35 -9 187 3 161 6 188 21 199 20 14 23 27 5 20 -10 -4 -14 17 -16 80 l-4 85
33 0 c32 0 32 0 13 21 -10 12 -18 22 -16 23 2 0 -1 14 -7 29 -6 16 -11 58 -11
95 l1 67 24 -30 c35 -42 31 -22 -5 32 -17 25 -30 53 -28 62 5 24 41 25 63 1
27 -30 35 -25 34 23 -1 23 3 52 9 64 16 29 15 33 -7 33 -41 0 -69 75 -46 121
22 41 19 55 -20 90 -38 35 -37 49 3 49 32 0 45 8 60 35 10 17 11 17 12 3 0
-24 40 -45 51 -27 5 8 9 20 9 27 0 19 34 14 64 -9 15 -12 27 -31 27 -47 1 -19
4 -15 8 13 l6 40 62 0 63 0 0 -37 c0 -43 14 -49 31 -15 24 45 77 90 63 52 -4
-8 -2 -15 4 -15 5 0 15 7 22 15 22 27 57 16 118 -34 67 -56 103 -118 104 -180
0 -23 2 -41 3 -41 8 0 93 171 114 228 28 74 93 151 151 180 l41 20 -35 21
c-59 37 -109 117 -140 225 -10 32 -15 65 -12 72 3 8 3 14 0 14 -2 0 -9 -12
-15 -27 l-10 -28 -21 28 c-21 29 -38 35 -38 13 0 -8 -16 -23 -35 -35 -20 -12
-35 -28 -35 -39 0 -20 -37 -42 -72 -42 -11 0 -40 -10 -63 -21 -41 -21 -44 -21
-94 -4 -28 9 -53 21 -56 26 -4 5 -15 9 -26 9 -17 0 -24 -11 -20 -33 1 -5 -4
-5 -11 -1 -7 4 -57 8 -113 9 -94 1 -167 15 -190 37 -14 13 15 32 95 63 39 15
78 38 94 56 15 16 31 27 36 24 9 -6 14 8 11 28 -1 5 4 7 11 4 7 -2 12 -10 10
-16 -1 -7 2 -10 8 -6 6 3 8 10 5 14 -8 14 31 51 56 53 13 2 27 8 31 13 5 6 8
5 8 -2 0 -7 7 -13 15 -13 8 0 15 5 15 11 0 5 4 8 9 4 15 -8 43 26 38 46 -3 10
2 26 10 36 8 10 12 12 8 6 -11 -23 7 -38 22 -18 7 11 13 15 13 11 0 -4 7 0 16
9 14 13 14 18 2 32 -12 15 -11 15 8 5 15 -8 24 -8 32 0 8 8 13 7 18 -5 3 -9
12 -17 19 -17 8 0 11 -8 8 -20 -3 -11 0 -20 6 -20 21 0 24 30 5 53 -16 18 -16
19 -2 8 10 -7 25 -11 33 -7 9 3 13 2 10 -4 -3 -6 -2 -10 4 -10 5 0 11 6 13 12
3 9 9 8 21 -4 9 -9 14 -24 11 -32 -5 -12 0 -16 21 -16 23 0 25 3 20 23 l-6 22
20 -23 20 -23 12 22 c11 21 12 22 25 5 13 -18 40 -13 29 5 -4 5 -1 9 6 9 7 0
4 7 -7 15 -17 13 -17 14 -1 15 9 0 17 -5 17 -11 0 -5 6 -7 13 -3 9 6 9 5 0 -8
-17 -20 -5 -30 19 -17 10 6 16 15 12 22 -5 9 -3 8 7 0 17 -17 29 -16 29 1 0 8
5 18 12 22 7 4 8 3 4 -4 -5 -8 1 -12 14 -12 12 0 18 5 15 10 -3 6 1 10 10 10
9 0 13 5 10 10 -3 6 1 10 9 10 9 0 13 6 10 13 -2 7 6 19 20 26 17 10 24 22 25
45 0 17 2 40 4 51 2 11 -2 26 -10 33 -10 11 -11 17 -2 28 9 11 8 18 -1 29 -7
9 -10 18 -7 22 4 3 9 -1 12 -9 4 -10 14 -14 28 -11 22 5 22 5 2 -11 -11 -10
-14 -14 -6 -10 10 5 12 1 6 -17 l-6 -24 20 25 c11 14 21 33 21 42 0 18 16 25
74 32 49 6 68 24 90 85 9 27 37 71 62 98 24 26 44 52 44 57 0 4 11 21 25 38
14 16 25 40 25 53 0 13 8 39 19 57 10 18 24 54 31 80 11 43 10 51 -10 93 -12
26 -29 49 -36 52 -8 3 -31 -5 -51 -17 -39 -23 -114 -30 -136 -12 -26 20 -127
72 -140 72 -8 0 -17 6 -20 14 -9 23 -63 29 -155 16 -89 -12 -222 -54 -222 -71
0 -5 -6 -9 -13 -9 -31 0 -141 -136 -153 -190 -4 -19 -8 -37 -9 -40 -22 -95
-26 -201 -11 -260 5 -21 -1 -30 -39 -59 -25 -18 -42 -37 -39 -42 8 -14 -8 -10
-20 5 -22 27 -112 44 -183 33 -37 -5 -119 -59 -115 -75 1 -7 -3 -12 -9 -12
-13 0 -77 -67 -83 -89 -7 -21 9 -48 18 -32 14 22 26 11 16 -14 -9 -24 -8 -25
25 -25 34 0 47 -13 23 -23 -7 -3 -3 -6 10 -6 13 -1 21 3 17 8 -3 5 -1 12 5 16
5 3 10 -1 10 -9 0 -17 -39 -48 -51 -40 -4 2 -11 0 -14 -6 -5 -8 -11 -8 -20 0
-9 8 -17 4 -29 -14 -9 -14 -16 -30 -16 -36 0 -13 -27 -13 -35 0 -3 6 -17 10
-31 10 -13 0 -24 5 -24 10 0 24 -33 19 -105 -15 -42 -21 -78 -42 -80 -49 -2
-6 -6 -23 -9 -38 -4 -16 -11 -28 -17 -28 -6 0 -9 6 -6 14 3 8 0 13 -6 12 -19
-3 -38 -17 -33 -24 2 -4 -3 -18 -13 -31 l-18 -23 -13 31 c-7 17 -10 45 -6 61
5 25 2 30 -14 30 -23 0 -24 4 -9 32 8 15 8 32 -1 65 -11 36 -10 49 0 68 13 24
9 39 -11 41 -5 1 -12 2 -15 3 -4 0 -1 8 6 16 9 10 11 32 7 67 -4 33 -2 57 5
66 9 10 9 18 1 32 -7 10 -10 42 -7 76 2 33 0 81 -5 109 -7 37 -6 56 4 75 11
21 11 30 -2 54 -13 25 -13 38 -4 81 8 36 9 60 2 78 -7 18 -7 53 -1 105 8 63 8
79 -4 87 -10 8 -11 16 -4 29 6 11 8 47 5 82 -4 56 -2 65 16 77 20 13 20 15 3
51 -15 31 -15 42 -5 73 22 69 71 163 84 163 7 0 15 12 18 28 9 45 62 108 110
131 l46 22 -40 82 c-78 163 -121 212 -237 272 -90 46 -121 68 -142 100 l-18
28 -15 -29z m-122 -180 c-22 -15 -51 -36 -64 -48 -23 -21 -87 -137 -102 -186
l-7 -25 -1 26 c-1 35 61 157 96 191 29 27 91 66 108 67 5 1 -8 -11 -30 -25z
m27 -86 c-7 -7 -12 -8 -12 -2 0 14 12 26 19 19 2 -3 -1 -11 -7 -17z m13 -338
c3 -5 2 -10 -4 -10 -5 0 -13 5 -16 10 -3 6 -2 10 4 10 5 0 13 -4 16 -10z m35
-185 c14 -19 14 -19 -2 -6 -10 7 -18 18 -18 24 0 6 1 8 3 6 1 -2 9 -13 17 -24z
m-41 -69 c-12 -10 -60 -16 -54 -6 3 5 18 10 32 10 15 0 24 -2 22 -4z m68 -52
c-3 -3 -12 -4 -19 -1 -8 3 -5 6 6 6 11 1 17 -2 13 -5z m-47 -208 c0 -2 -7 -6
-15 -10 -8 -3 -15 -1 -15 4 0 6 7 10 15 10 8 0 15 -2 15 -4z m27 -66 c-17 -28
-29 -25 -15 5 6 13 15 22 19 19 5 -3 3 -14 -4 -24z m-13 -149 c3 -4 -6 -6 -19
-3 -14 2 -25 6 -25 8 0 8 39 4 44 -5z m-41 -235 c-10 -13 -19 -20 -21 -15 -4
10 19 38 31 39 4 0 0 -11 -10 -24z m20 -203 c-7 -2 -13 -11 -13 -19 0 -8 -4
-14 -10 -14 -11 0 -14 23 -3 33 3 4 13 7 22 6 10 0 12 -2 4 -6z m1674 -45 c-3
-7 -5 -2 -5 12 0 14 2 19 5 13 2 -7 2 -19 0 -25z m-8 -24 c6 -15 9 -29 6 -33
-8 -7 -35 28 -35 46 0 22 16 15 29 -13z m-879 -103 c-10 -20 -30 -37 -30 -27
0 6 33 46 38 46 1 0 -2 -9 -8 -19z m907 -6 c0 -8 -4 -12 -9 -9 -5 3 -6 10 -3
15 9 13 12 11 12 -6z m-927 -39 c0 -3 -4 -8 -10 -11 -5 -3 -10 -1 -10 4 0 6 5
11 10 11 6 0 10 -2 10 -4z m885 -26 c-3 -5 -12 -10 -18 -10 -7 0 -6 4 3 10 19
12 23 12 15 0z m-265 -40 c0 -5 -4 -10 -10 -10 -5 0 -10 5 -10 10 0 6 5 10 10
10 6 0 10 -4 10 -10z m57 -12 c-3 -8 -6 -5 -6 6 -1 11 2 17 5 13 3 -3 4 -12 1
-19z m-102 -8 c-3 -5 -12 -10 -18 -10 -7 0 -6 4 3 10 19 12 23 12 15 0z m264
-19 c-6 -2 -16 2 -22 9 -9 10 -9 11 1 6 7 -4 12 -2 12 6 0 9 3 9 10 -2 6 -10
6 -16 -1 -19z m-1022 -7 c-3 -3 -12 -4 -19 -1 -8 3 -5 6 6 6 11 1 17 -2 13 -5z
m843 -14 c0 -5 -4 -10 -10 -10 -5 0 -10 5 -10 10 0 6 5 10 10 10 6 0 10 -4 10
-10z m-1393 -6 c-3 -3 -12 -4 -19 -1 -8 3 -5 6 6 6 11 1 17 -2 13 -5z m1053
-99 c0 -12 -19 -12 -23 0 -4 9 -1 12 9 8 7 -3 14 -7 14 -8z m-712 -67 c6 -17
10 -33 8 -36 -2 -2 -7 6 -11 17 -3 12 -13 21 -20 21 -9 0 -12 6 -9 15 9 23 18
18 32 -17z m476 -43 c-4 -8 -12 -15 -19 -15 -7 0 -15 -8 -17 -18 -4 -14 -13
-17 -40 -14 -39 4 -95 -20 -148 -65 -22 -18 -35 -23 -37 -16 -3 9 -11 9 -28
-3 -15 -9 -25 -11 -29 -5 -8 13 39 45 53 36 6 -3 23 5 38 19 15 15 31 26 36
26 4 0 6 4 3 8 -2 4 4 9 15 9 11 1 33 8 48 16 21 11 32 12 40 4 8 -8 11 -8 11
1 0 7 5 12 11 12 5 0 7 -4 4 -10 -3 -5 -1 -10 4 -10 6 0 11 4 11 8 0 7 28 25
47 31 1 1 0 -6 -3 -14z m-967 -11 c-3 -3 -12 -4 -19 -1 -8 3 -5 6 6 6 11 1 17
-2 13 -5z m241 -33 c9 -5 -13 -10 -56 -13 -59 -4 -78 -11 -125 -42 -68 -45
-103 -84 -133 -151 -58 -125 -36 -232 70 -340 47 -48 75 -67 124 -85 34 -12
62 -26 62 -31 0 -11 -75 16 -126 46 -51 30 -123 110 -155 173 -36 70 -34 186
3 262 35 71 111 145 174 170 51 20 139 26 162 11z m458 -119 c-8 -9 -19 -13
-22 -9 -10 9 16 38 28 31 6 -4 4 -13 -6 -22z m-846 -32 c-8 -5 -24 -9 -35 -9
-16 1 -16 2 5 9 35 11 48 11 30 0z m-550 -14 c0 -2 -8 -10 -17 -17 -16 -13
-17 -12 -4 4 13 16 21 21 21 13z m399 -101 c14 -16 17 -23 7 -15 -28 22 -76
91 -76 109 1 9 10 -2 22 -24 11 -22 32 -53 47 -70z m-79 65 c0 -5 -5 -10 -11
-10 -5 0 -7 5 -4 10 3 6 8 10 11 10 2 0 4 -4 4 -10z m-420 -30 c-8 -5 -24 -9
-35 -9 -16 1 -16 2 5 9 35 11 48 11 30 0z m390 7 c0 -2 -12 -14 -27 -28 l-28
-24 24 28 c23 25 31 32 31 24z m220 -64 c0 -32 -5 -28 -14 10 -4 19 -3 26 4
22 5 -3 10 -18 10 -32z m-280 13 c0 -3 -4 -8 -10 -11 -5 -3 -10 -1 -10 4 0 6
5 11 10 11 6 0 10 -2 10 -4z m-483 -12 c-3 -3 -12 -4 -19 -1 -8 3 -5 6 6 6 11
1 17 -2 13 -5z m704 -31 c13 -16 12 -17 -3 -4 -10 7 -18 15 -18 17 0 8 8 3 21
-13z m1656 -29 c-3 -3 -12 -4 -19 -1 -8 3 -5 6 6 6 11 1 17 -2 13 -5z m-912
-101 c-9 -15 -13 -19 -10 -8 4 11 10 29 13 40 3 11 7 14 9 8 3 -7 -3 -24 -12
-40z m-2178 -125 c-3 -7 -5 -2 -5 12 0 14 2 19 5 13 2 -7 2 -19 0 -25z m1599
-93 c23 -41 15 -32 -46 50 -41 56 -44 61 -11 25 22 -25 47 -58 57 -75z m-1496
48 c0 -47 -9 -83 -21 -83 -10 0 -12 103 -2 113 15 16 23 5 23 -30z m1354 -43
c30 -17 60 -38 68 -48 9 -11 0 -8 -27 8 -111 66 -142 97 -41 40z m-1414 -15
c0 -34 -12 -46 -25 -24 -9 14 3 59 15 59 6 0 10 -16 10 -35z m90 -13 c0 -7 -4
-10 -10 -7 -5 3 -10 16 -10 28 0 18 2 19 10 7 5 -8 10 -21 10 -28z m-856 2 c3
-8 2 -12 -4 -9 -6 3 -10 10 -10 16 0 14 7 11 14 -7z m-50 -23 c3 -5 -1 -14 -9
-21 -13 -10 -15 -9 -15 9 0 21 14 28 24 12z m30 -33 c-3 -4 -9 -8 -15 -8 -5 0
-9 4 -9 8 0 5 7 9 15 9 8 0 12 -4 9 -9z m-26 -26 c2 -7 -1 -12 -8 -12 -6 0 -9
4 -6 9 4 5 1 12 -4 14 -6 3 -5 4 2 3 6 -1 14 -8 16 -14z m2557 -22 c10 -11 16
-20 13 -20 -3 0 -13 9 -23 20 -10 11 -16 20 -13 20 3 0 13 -9 23 -20z m-1735
-82 c0 -74 -11 -111 -25 -89 -9 16 5 161 16 161 5 0 9 -33 9 -72z m60 0 c0
-37 1 -71 3 -75 1 -5 -8 -9 -20 -11 -22 -3 -23 -1 -23 77 0 74 2 80 20 78 18
-1 20 -8 20 -69z m1580 52 c6 -11 8 -20 6 -20 -3 0 -10 9 -16 20 -6 11 -8 20
-6 20 3 0 10 -9 16 -20z m145 -20 c10 -11 16 -20 13 -20 -3 0 -13 9 -23 20
-10 11 -16 20 -13 20 3 0 13 -9 23 -20z m-95 -35 l25 -30 -27 24 c-16 14 -28
29 -28 34 0 6 1 8 3 6 1 -2 13 -17 27 -34z m70 -110 c0 -2 -10 -10 -22 -16
-21 -11 -22 -11 -9 4 13 16 31 23 31 12z m-1943 -57 c-3 -8 -6 -5 -6 6 -1 11
2 17 5 13 3 -3 4 -12 1 -19z m1843 -45 c-35 -38 -65 -70 -67 -72 -2 -2 -3 0
-3 6 0 14 109 133 122 133 6 0 -17 -30 -52 -67z m-2662 -31 c-11 -13 -10 -15
3 -10 17 7 37 -50 89 -258 16 -62 38 -142 49 -179 44 -142 16 -124 -33 21 -19
54 -45 128 -59 164 -42 105 -61 191 -45 201 12 8 4 13 -14 10 -4 0 -7 9 -7 22
1 12 -2 30 -5 39 -6 13 -3 15 13 11 18 -5 19 -8 9 -21z m1057 4 c23 -35 17
-108 -10 -113 -60 -10 -60 -11 -63 41 -3 39 1 53 19 72 28 30 35 30 54 0z
m-445 -96 c0 -18 -30 -30 -30 -12 0 4 -3 18 -7 31 -5 21 -4 22 16 12 11 -7 21
-21 21 -31z m1945 30 c-3 -5 -14 -10 -23 -9 -14 0 -13 2 3 9 27 11 27 11 20 0z
m-1108 -47 c-4 -17 -4 -17 -12 0 -4 9 -4 25 0 35 8 16 8 16 12 0 3 -10 3 -26
0 -35z m1162 -153 c11 -24 11 -24 -3 -6 -9 11 -16 24 -16 30 0 12 5 7 19 -24z
m-2224 -39 c-10 -16 -25 -3 -25 22 0 20 1 20 16 5 9 -9 13 -21 9 -27z m663 22
c6 -10 13 -41 17 -70 6 -50 6 -52 -17 -51 -12 1 -31 8 -40 16 -16 14 -18 13
-18 -2 0 -9 -4 -14 -10 -11 -14 8 -13 45 1 45 7 0 9 10 5 25 -12 49 41 89 62
48z m-553 -33 c3 -5 -1 -10 -9 -10 -9 0 -16 5 -16 10 0 6 4 10 9 10 6 0 13 -4
16 -10z m4845 -110 c0 -5 -5 -10 -11 -10 -5 0 -7 5 -4 10 3 6 8 10 11 10 2 0
4 -4 4 -10z m-1758 -88 c-7 -2 -12 -8 -12 -13 0 -6 4 -7 10 -4 6 3 7 -1 4 -9
-3 -9 -10 -16 -14 -16 -9 0 -7 28 5 54 6 15 10 16 13 6 3 -8 0 -16 -6 -18z
m-3582 -22 c0 -3 -9 -11 -20 -18 -11 -7 -20 -10 -20 -8 0 2 -3 11 -6 19 -4 11
1 15 20 13 14 0 26 -3 26 -6z m2149 -90 c-2 -34 -6 -50 -16 -50 -16 0 -16 13
-2 63 14 51 20 47 18 -13z m268 -12 c-3 -7 -5 -2 -5 12 0 14 2 19 5 13 2 -7 2
-19 0 -25z m-360 -4 c-3 -3 -12 -4 -19 -1 -8 3 -5 6 6 6 11 1 17 -2 13 -5z
m-23 -20 c26 -3 47 -1 51 5 10 17 21 13 22 -9 2 -19 -4 -20 -75 -19 -42 0 -86
0 -97 -2 -11 -1 -36 0 -55 1 -19 1 -43 -1 -54 -5 -14 -6 -18 -5 -14 6 5 16 81
29 100 18 6 -4 23 -2 37 6 14 7 29 11 34 8 4 -2 27 -7 51 -9z m-319 -14 c3 -5
-1 -10 -9 -10 -9 0 -16 5 -16 10 0 6 4 10 9 10 6 0 13 -4 16 -10z m-52 -7 c-7
-2 -19 -2 -25 0 -7 3 -2 5 12 5 14 0 19 -2 13 -5z m117 -3 c0 -5 -6 -10 -14
-10 -8 0 -18 5 -21 10 -3 6 3 10 14 10 12 0 21 -4 21 -10z m2407 -6 c-3 -3
-12 -4 -19 -1 -8 3 -5 6 6 6 11 1 17 -2 13 -5z m-142 -22 c-3 -3 -11 0 -18 7
-9 10 -8 11 6 5 10 -3 15 -9 12 -12z m120 0 c-3 -3 -11 0 -18 7 -9 10 -8 11 6
5 10 -3 15 -9 12 -12z m82 2 c-3 -3 -12 -4 -19 -1 -8 3 -5 6 6 6 11 1 17 -2
13 -5z m-2756 -231 c22 -49 56 -128 75 -178 19 -49 40 -102 45 -117 6 -15 19
-34 30 -44 30 -27 23 -35 -28 -33 -27 1 -63 -1 -81 -5 l-34 -8 17 32 c13 26
14 37 5 66 -14 41 -40 54 -111 54 -48 0 -51 -2 -65 -35 -19 -45 -18 -58 6 -85
25 -28 25 -34 3 -25 -10 5 -42 7 -70 6 -29 -1 -53 1 -53 4 0 4 9 19 19 34 11
15 29 56 41 91 12 36 42 108 66 161 24 53 44 101 44 106 0 11 38 63 46 63 3 0
23 -39 45 -87z m1449 15 c-1 -61 -1 -62 -18 -42 -27 32 -56 44 -105 44 l-45 0
-4 -61 -3 -61 45 5 c25 3 55 9 68 12 21 7 22 5 22 -44 0 -44 -3 -51 -19 -51
-11 0 -23 5 -26 10 -3 6 -24 10 -46 10 l-39 0 0 -64 c0 -36 4 -67 9 -71 5 -3
35 -7 66 -10 55 -5 59 -3 92 30 20 20 37 34 39 33 1 -2 -5 -33 -14 -70 -14
-59 -18 -67 -36 -63 -56 11 -234 15 -259 6 -22 -9 -27 -8 -27 4 0 8 9 24 19
34 18 18 20 35 20 183 -1 161 -1 163 -26 190 l-26 27 143 0 c79 1 145 3 148 6
16 15 22 -2 22 -57z m388 47 c2 -2 0 -24 -3 -50 l-7 -46 -23 21 c-34 32 -84
43 -112 25 -44 -29 -28 -54 74 -119 100 -63 123 -114 86 -183 -30 -54 -79 -83
-141 -83 -29 0 -62 5 -73 11 -15 7 -24 7 -35 -1 -20 -17 -26 4 -22 81 l3 64
22 -36 c44 -71 136 -82 167 -20 19 36 7 55 -61 93 -78 44 -123 91 -123 129 0
83 73 133 180 124 35 -3 66 -8 68 -10z m-1375 -1 c36 -6 37 -8 37 -50 0 -24
-3 -44 -6 -44 -3 0 -19 11 -36 25 -34 29 -64 32 -96 9 -38 -26 -24 -54 48
-101 36 -23 77 -56 93 -73 91 -102 -71 -254 -200 -187 -24 13 -32 14 -36 4 -2
-6 -8 17 -14 53 -5 36 -7 67 -6 70 2 2 21 -16 42 -40 34 -40 43 -45 81 -45 32
0 47 6 61 24 31 37 24 59 -28 89 -90 53 -143 112 -143 160 0 25 35 69 74 93
32 20 66 23 129 13z m292 -17 c-9 -14 -15 -45 -15 -84 l0 -63 75 -1 c41 -1 81
-2 88 -3 8 -1 13 18 15 58 3 48 -1 65 -18 88 l-21 28 82 0 82 0 -21 -22 c-19
-22 -21 -33 -19 -190 2 -155 3 -168 25 -197 29 -39 28 -42 -8 -29 -20 6 -48 7
-85 1 -59 -11 -67 -5 -35 27 17 17 20 33 20 100 l0 81 -87 -3 -88 -3 -3 -73
c-2 -60 1 -79 18 -106 26 -43 25 -48 -5 -32 -18 9 -40 11 -77 5 -28 -5 -54 -6
-57 -4 -2 3 5 18 17 34 20 28 22 41 21 198 l0 168 -27 22 -27 21 82 0 c82 0
82 -1 68 -21z m1693 -1 c93 -49 138 -175 97 -274 -20 -47 -78 -108 -129 -134
-44 -22 -91 -20 -150 9 -63 30 -126 144 -121 218 1 17 3 40 3 53 3 30 73 106
125 132 34 17 53 20 95 15 30 -3 66 -12 80 -19z m504 -34 l-4 -52 -30 25 c-26
22 -39 25 -82 23 l-51 -3 -3 -59 -3 -59 65 7 65 6 -1 -50 c-2 -54 -3 -57 -32
-35 -11 8 -37 15 -58 15 l-38 0 0 -71 c0 -56 4 -77 21 -101 12 -16 20 -31 18
-33 -2 -2 -23 0 -47 5 -23 4 -63 5 -87 2 -32 -3 -45 -1 -45 8 0 6 9 14 20 17
26 7 28 17 35 206 5 154 5 158 -17 180 l-23 22 150 0 150 0 -3 -53z m-4562 8
c0 -5 -2 -10 -4 -10 -3 0 -8 5 -11 10 -3 6 -1 10 4 10 6 0 11 -4 11 -10z
m5900 3 c0 -5 -5 -15 -10 -23 -8 -12 -10 -11 -10 8 0 12 5 22 10 22 6 0 10 -3
10 -7z m170 -39 c0 -8 -5 -12 -10 -9 -6 4 -8 11 -5 16 9 14 15 11 15 -7z
m-1213 -56 c-3 -8 -6 -5 -6 6 -1 11 2 17 5 13 3 -3 4 -12 1 -19z m478 -328
c205 -6 236 -9 285 -29 173 -70 279 -198 331 -398 22 -88 23 -184 1 -247 -10
-30 -11 -46 -3 -58 9 -14 8 -18 -2 -18 -8 0 -25 -26 -39 -57 -71 -159 -236
-287 -420 -325 -50 -10 -61 -10 -68 2 -7 10 -10 11 -10 3 0 -14 -56 -17 -109
-7 -22 5 -30 11 -27 20 3 8 -1 14 -10 14 -10 0 -14 -6 -10 -15 5 -13 -11 -15
-101 -15 l-107 0 42 31 c43 32 62 72 56 119 -2 14 -6 112 -9 218 -4 107 -9
200 -12 208 -3 9 2 14 13 15 14 1 12 3 -6 8 -31 9 -37 58 -6 53 17 -3 18 1 11
45 -8 54 -8 172 1 250 8 64 -7 111 -46 148 -37 35 -40 61 -7 50 12 -4 126 -11
252 -15z m-4522 -3 l29 -12 -61 -28 c-57 -26 -102 -69 -87 -84 3 -3 95 -8 205
-11 166 -4 204 -2 230 11 36 18 35 21 24 -96 l-6 -68 -31 29 c-48 46 -71 53
-145 50 l-68 -3 0 -107 1 -108 78 0 c56 0 86 5 104 16 13 9 27 14 30 11 3 -3
1 -29 -4 -59 -6 -29 -8 -66 -5 -83 l6 -30 -31 29 c-27 25 -41 30 -107 34 l-75
5 0 -127 0 -127 93 2 c50 2 100 6 109 11 9 4 31 28 49 53 35 49 55 59 45 23
-4 -13 -12 -61 -18 -108 -6 -47 -13 -79 -15 -72 -4 9 -59 12 -231 12 l-227 1
28 23 c28 23 29 26 32 132 2 60 6 123 10 140 6 28 4 32 -21 38 -16 4 -32 13
-36 19 -8 14 9 37 28 37 7 0 16 5 20 12 10 17 5 218 -7 240 -13 23 -64 49 -83
42 -9 -3 -60 -144 -135 -367 -66 -199 -138 -414 -160 -477 -23 -65 -45 -151
-50 -199 -6 -46 -12 -85 -13 -87 -2 -1 -16 -6 -32 -10 -27 -6 -28 -6 -16 16
18 34 5 81 -69 240 -76 162 -106 244 -95 261 4 8 3 9 -5 5 -13 -8 -46 59 -36
74 3 5 -16 15 -42 23 -47 14 -47 15 -14 16 32 1 33 2 27 32 -3 16 -23 72 -45
122 -21 51 -65 164 -97 252 -32 88 -66 172 -76 187 -11 16 -36 32 -59 39 -21
7 -39 16 -39 21 0 4 104 8 230 8 130 0 230 -4 230 -9 0 -5 -13 -14 -29 -19
-16 -6 -37 -21 -46 -35 -18 -27 -16 -39 29 -192 24 -80 25 -91 11 -101 -17
-13 -21 -44 -5 -44 6 0 14 10 19 23 8 20 10 18 16 -18 5 -22 14 -54 22 -72 7
-18 13 -52 13 -76 0 -27 6 -49 14 -57 8 -6 20 -35 26 -63 15 -73 59 -166 69
-147 8 16 32 86 131 389 57 172 100 325 100 351 0 6 -16 20 -36 32 -19 11 -32
24 -27 29 5 5 53 10 108 12 55 1 120 4 145 4 25 1 58 -3 73 -10z m5075 -35
c15 -10 5 -45 -12 -39 -13 4 -21 47 -9 47 4 0 14 -4 21 -8z m-3798 -96 l57 -1
-1 -77 c-1 -42 -4 -79 -7 -83 -4 -3 -19 9 -34 29 -61 80 -215 74 -215 -9 0
-38 51 -87 140 -135 95 -51 135 -93 145 -149 9 -52 -15 -135 -52 -183 -53 -70
-187 -102 -264 -64 -18 9 -42 16 -54 16 -30 0 -35 16 -35 118 l1 87 22 -27
c12 -15 34 -44 48 -66 48 -71 135 -90 187 -41 12 11 26 17 31 14 6 -3 9 18 8
49 -3 69 -19 87 -131 150 -133 74 -191 153 -172 232 7 27 78 109 109 126 27
14 107 26 136 20 13 -3 49 -5 81 -6z m-614 -21 c-30 -28 -28 -9 -30 -360 l-1
-220 35 -3 c19 -2 59 0 88 3 64 8 103 38 122 95 23 69 34 60 26 -21 -3 -41
-11 -100 -17 -131 -11 -57 -11 -57 -35 -41 -20 13 -52 14 -221 9 l-198 -7 35
31 35 31 1 277 c1 301 -2 318 -54 346 -25 14 -17 15 107 16 l134 0 -27 -25z
m963 -7 c-20 -28 -21 -40 -20 -301 l2 -271 24 -32 25 -33 -118 1 -117 0 29 23
28 23 3 166 c4 267 -4 382 -29 419 l-22 32 108 1 107 1 -20 -29z m366 -127
c57 -87 124 -179 149 -207 l46 -49 -4 174 -4 175 -31 25 c-17 15 -31 28 -31
31 0 6 210 8 210 2 0 -2 -13 -20 -30 -39 -34 -38 -32 -14 -34 -435 -1 -104 -5
-188 -9 -188 -36 0 -118 88 -233 251 -81 115 -147 199 -155 199 -5 0 -9 -89
-9 -198 0 -159 3 -202 15 -218 26 -35 18 -39 -65 -36 -44 2 -80 8 -80 13 0 4
11 16 25 25 l25 16 -4 269 -3 269 -27 34 c-14 19 -26 36 -26 38 0 2 39 4 86 4
l85 1 104 -156z m850 147 c6 -1 22 2 37 5 26 7 26 6 17 -25 -5 -18 -9 -59 -9
-90 0 -32 -2 -58 -5 -58 -3 0 -20 16 -38 36 -40 47 -82 64 -153 64 -107 0
-160 -51 -185 -178 -14 -75 -7 -144 21 -210 35 -81 82 -113 188 -127 l52 -7 0
117 0 116 -36 33 -35 32 136 0 136 -1 -38 -31 -37 -31 -1 -134 0 -134 -65 -17
c-36 -9 -100 -16 -143 -17 -68 -1 -85 3 -138 30 -160 80 -221 208 -189 395 19
109 79 173 207 220 66 24 123 26 278 12z m577 -17 c26 -13 63 -41 83 -62 30
-33 35 -46 35 -87 0 -76 -48 -141 -146 -198 -18 -10 -17 -13 15 -49 18 -21 52
-68 75 -104 40 -62 106 -131 125 -131 17 0 31 28 67 131 59 171 100 280 129
349 33 77 35 111 8 148 l-20 27 104 1 c70 0 100 -3 93 -10 -18 -18 -11 -95 16
-158 25 -59 71 -190 132 -373 21 -62 37 -90 72 -127 l46 -48 -36 5 c-19 2 -78
7 -131 11 l-96 6 10 44 c8 35 7 50 -6 76 -9 18 -20 47 -25 63 l-9 30 -95 1
-95 1 -26 -80 c-24 -72 -25 -84 -13 -108 l13 -27 -121 4 c-199 7 -186 0 -267
134 -72 119 -108 160 -138 160 -15 0 -17 -12 -19 -107 -1 -91 2 -111 19 -134
10 -15 19 -29 19 -31 0 -8 -220 -6 -220 2 0 5 13 19 28 30 l29 21 -4 272 -4
272 -28 35 -28 35 181 -1 c167 0 185 -2 228 -23z m2082 -307 c9 -24 7 -28 -9
-14 -17 14 -20 30 -6 30 5 0 12 -7 15 -16z m-6459 -243 c-15 -14 -75 -24 -75
-12 0 5 15 12 33 14 17 2 36 5 42 5 6 1 6 -1 0 -7z m6200 -201 c8 -13 -5 -13
-25 0 -13 8 -13 10 2 10 9 0 20 -4 23 -10z m-5035 -203 c-14 -8 -27 -12 -30
-10 -7 6 23 23 40 23 8 0 4 -6 -10 -13z m2488 -166 c7 -1 10 -5 7 -11 -3 -5 3
-10 14 -10 10 0 21 5 23 12 3 7 12 8 30 2 l27 -9 -29 -32 c-16 -18 -32 -28
-35 -23 -8 13 4 32 15 25 4 -3 10 4 13 15 4 16 2 17 -14 7 -10 -6 -19 -16 -19
-20 0 -5 -7 -7 -15 -3 -10 4 -15 -1 -15 -14 0 -11 6 -20 13 -20 8 0 13 -21 14
-67 1 -38 2 -77 2 -88 0 -11 -1 -45 -3 -75 -2 -30 1 -61 7 -67 6 -9 6 -13 -1
-13 -16 0 -25 -75 -12 -99 13 -26 27 -26 53 -3 20 16 20 16 14 -3 -7 -19 -6
-19 7 -2 7 9 18 17 25 17 14 0 15 17 1 25 -6 3 -13 0 -16 -9 -3 -9 -12 -12
-21 -9 -13 5 -12 8 5 14 12 5 22 16 23 26 0 14 2 13 10 -5 7 -19 11 -21 23
-10 8 7 11 18 8 23 -3 6 -2 7 3 3 9 -8 50 40 42 49 -9 8 -39 -6 -33 -15 3 -5
-4 -16 -14 -25 -32 -27 -30 4 4 48 42 55 53 65 60 58 11 -12 6 -22 -14 -28
-11 -4 -18 -11 -15 -16 10 -15 42 -10 49 7 4 9 9 14 13 11 5 -5 -53 -82 -96
-127 -25 -26 -123 -183 -144 -230 -15 -33 -21 -69 -22 -138 l-2 -94 24 29 c16
19 21 21 14 7 -5 -11 -17 -27 -26 -34 -9 -8 -25 -31 -36 -52 -11 -21 -21 -38
-23 -38 -2 0 -1 143 1 318 5 290 5 478 0 637 -2 59 -1 60 23 59 14 -2 31 -3
38 -3z m202 -11 c-20 -13 -33 -13 -25 0 3 6 14 10 23 10 15 0 15 -2 2 -10z
m2095 -130 c-3 -5 -10 -10 -16 -10 -5 0 -9 5 -9 10 0 6 7 10 16 10 8 0 12 -4
9 -10z m72 -17 c3 -7 -4 -9 -16 -6 -12 3 -18 9 -15 15 7 11 26 6 31 -9z m63
-17 c0 -3 -4 -8 -10 -11 -5 -3 -10 -1 -10 4 0 6 5 11 10 11 6 0 10 -2 10 -4z
m-2141 -115 c-15 -5 -22 6 -14 19 6 9 10 9 16 -1 5 -8 4 -15 -2 -18z m-1659
-6 c-14 -17 -30 -20 -30 -6 0 5 8 12 18 14 9 3 19 5 21 6 2 0 -2 -6 -9 -14z
m1610 5 c0 -5 -2 -10 -4 -10 -3 0 -8 5 -11 10 -3 6 -1 10 4 10 6 0 11 -4 11
-10z m-1555 -88 c-7 -7 -45 19 -56 39 -9 18 -5 17 25 -7 19 -15 33 -30 31 -32z
m30 -32 c3 -5 1 -10 -4 -10 -6 0 -11 5 -11 10 0 6 2 10 4 10 3 0 8 -4 11 -10z
m60 -40 c3 -5 -3 -10 -14 -10 -12 0 -21 5 -21 10 0 6 6 10 14 10 8 0 18 -4 21
-10z m-1060 -290 c52 -32 119 -100 98 -100 -5 0 -18 8 -29 18 -10 10 -50 40
-89 66 -53 37 -63 47 -40 42 17 -4 44 -16 60 -26z m3355 -141 c0 -5 -4 -8 -9
-4 -5 3 -12 1 -16 -5 -3 -5 -12 -10 -18 -10 -7 0 -3 7 7 15 23 18 36 19 36 4z
m-164 -224 c10 -8 14 -15 7 -15 -6 0 -14 4 -18 10 -3 5 -13 6 -22 3 -11 -4
-14 -3 -9 5 9 16 18 15 42 -3z m88 7 c3 -5 -1 -9 -9 -9 -8 0 -12 4 -9 9 3 4 7
8 9 8 2 0 6 -4 9 -8z m-186 -14 c-3 -7 -14 -14 -26 -16 -12 -2 -22 -11 -23
-20 0 -12 -2 -13 -6 -3 -4 10 -7 10 -13 1 -5 -8 -10 -9 -14 -1 -4 6 10 19 31
30 45 24 56 26 51 9z m30 -26 c-1 -17 -6 -29 -14 -29 -8 0 -14 4 -14 9 0 4 -5
8 -11 8 -5 0 -8 -4 -5 -9 5 -8 -23 -26 -30 -19 -6 7 53 62 73 67 1 1 1 -12 1
-27z m62 8 c0 -16 -17 -20 -34 -7 -15 11 -15 13 8 15 14 1 26 -2 26 -8z m-244
-54 c0 -13 -4 -22 -8 -20 -9 6 -6 44 3 44 4 0 6 -11 5 -24z m64 15 c0 -5 -7
-12 -16 -15 -24 -9 -28 -7 -14 9 14 17 30 20 30 6z m180 -6 c0 -8 -4 -15 -10
-15 -5 0 -7 7 -4 15 4 8 8 15 10 15 2 0 4 -7 4 -15z m-169 -18 c-10 -9 -11 -8
-5 6 3 10 9 15 12 12 3 -3 0 -11 -7 -18z m82 -2 c-3 -9 -8 -14 -10 -11 -3 3
-2 9 2 15 9 16 15 13 8 -4z m-103 -14 c0 -5 -7 -12 -16 -15 -14 -5 -15 -4 -4
9 14 17 20 19 20 6z m-2706 -9 c3 -5 -1 -9 -9 -9 -8 0 -12 4 -9 9 3 4 7 8 9 8
2 0 6 -4 9 -8z m2656 -12 c0 -5 -4 -10 -10 -10 -5 0 -10 5 -10 10 0 6 5 10 10
10 6 0 10 -4 10 -10z m-70 -32 c0 -19 -16 -5 -17 14 -2 18 0 20 7 8 5 -8 10
-18 10 -22z m71 -5 c12 -16 12 -17 -1 -7 -8 6 -22 14 -30 17 -13 5 -12 6 1 6
9 1 23 -7 30 -16z m-164 -15 c-3 -8 -6 -5 -6 6 -1 11 2 17 5 13 3 -3 4 -12 1
-19z m-2251 -23 c-8 -8 -18 -15 -22 -15 -3 0 -1 7 6 15 7 8 17 15 22 15 5 0 3
-7 -6 -15z m2393 -19 c9 -11 8 -15 -5 -20 -9 -3 -20 -4 -25 0 -5 3 -9 0 -9 -6
0 -6 -5 -8 -11 -4 -8 4 -4 11 10 18 12 7 18 15 15 19 -4 4 -3 7 3 7 6 0 16 -6
22 -14z m-69 -40 c0 -3 -4 -8 -10 -11 -5 -3 -10 -1 -10 4 0 6 5 11 10 11 6 0
10 -2 10 -4z m-2140 -62 c0 -8 -4 -14 -9 -14 -12 0 -32 26 -25 33 10 9 34 -4
34 -19z m2054 4 c-3 -4 -12 -8 -20 -8 -8 0 -13 4 -10 8 3 5 12 9 20 9 8 0 13
-4 10 -9z m-1779 -148 c3 -5 -3 -10 -14 -10 -12 0 -21 5 -21 10 0 6 6 10 14
10 8 0 18 -4 21 -10z m1240 -170 c3 -5 1 -10 -4 -10 -6 0 -11 5 -11 10 0 6 2
10 4 10 3 0 8 -4 11 -10z m-108 -486 c-3 -3 -12 -4 -19 -1 -8 3 -5 6 6 6 11 1
17 -2 13 -5z m-734 -95 c-9 -9 -12 -7 -10 9 1 14 5 18 11 12 7 -7 6 -14 -1
-21z m774 -1 c-3 -8 -6 -5 -6 6 -1 11 2 17 5 13 3 -3 4 -12 1 -19z m-10 -60
c-3 -7 -5 -2 -5 12 0 14 2 19 5 13 2 -7 2 -19 0 -25z"/>
<path d="M3775 5267 c-7 -18 -17 -45 -20 -60 -7 -27 -7 -27 44 -27 28 0 51 2
51 5 0 11 -50 115 -55 115 -3 0 -12 -15 -20 -33z"/>
<path d="M6135 5346 c-45 -46 -57 -134 -25 -203 30 -68 61 -93 114 -93 57 0
91 36 101 109 11 80 -2 130 -45 173 -31 32 -44 38 -79 38 -31 0 -48 -6 -66
-24z"/>
<path d="M7602 4851 c-11 -6 -13 -75 -14 -335 0 -274 -2 -326 -14 -326 -8 0
-14 -4 -14 -10 0 -5 6 -7 14 -4 15 6 25 -50 27 -150 2 -96 9 -111 50 -109 165
9 297 164 327 382 26 182 -46 415 -152 496 -63 48 -188 80 -224 56z"/>
<path d="M8086 4695 c-3 -9 0 -15 9 -15 8 0 15 7 15 15 0 8 -4 15 -9 15 -5 0
-11 -7 -15 -15z"/>
<path d="M8005 4650 c-3 -5 -2 -10 4 -10 5 0 13 5 16 10 3 6 2 10 -4 10 -5 0
-13 -4 -16 -10z"/>
<path d="M8045 4640 c3 -5 8 -10 11 -10 2 0 4 5 4 10 0 6 -5 10 -11 10 -5 0
-7 -4 -4 -10z"/>
<path d="M7496 4562 c-2 -4 -1 -14 3 -21 6 -10 10 -9 14 3 6 16 -8 32 -17 18z"/>
<path d="M7450 4556 c0 -2 7 -7 16 -10 8 -3 12 -2 9 4 -6 10 -25 14 -25 6z"/>
<path d="M8043 4480 c-3 -11 -9 -18 -13 -15 -4 3 -10 -2 -14 -10 -3 -8 0 -17
6 -21 7 -4 8 -3 4 4 -4 7 -5 12 -2 12 2 0 12 3 22 7 13 5 16 3 11 -10 -5 -13
-1 -17 21 -17 24 1 25 2 9 11 -13 8 -17 18 -13 35 5 18 2 24 -10 24 -9 0 -18
-9 -21 -20z"/>
<path d="M8170 4468 c0 -9 5 -20 10 -23 13 -8 13 5 0 25 -8 13 -10 13 -10 -2z"/>
<path d="M8165 4390 c3 -5 8 -10 11 -10 2 0 4 5 4 10 0 6 -5 10 -11 10 -5 0
-7 -4 -4 -10z"/>
<path d="M8090 4291 c0 -5 5 -13 10 -16 6 -3 10 -2 10 4 0 5 -4 13 -10 16 -5
3 -10 2 -10 -4z"/>
<path d="M8152 4280 c0 -14 2 -19 5 -12 2 6 2 18 0 25 -3 6 -5 1 -5 -13z"/>
<path d="M8096 4221 c-6 -9 33 -45 41 -38 2 3 -5 15 -16 26 -11 11 -22 17 -25
12z"/>
<path d="M7976 4181 c-4 -7 -5 -15 -2 -18 9 -9 19 4 14 18 -4 11 -6 11 -12 0z"/>
<path d="M7530 4159 c0 -5 5 -7 10 -4 6 3 10 8 10 11 0 2 -4 4 -10 4 -5 0 -10
-5 -10 -11z"/>
<path d="M7470 4144 c0 -16 9 -18 28 -5 10 6 9 10 -7 14 -14 3 -21 0 -21 -9z"/>
<path d="M7435 4130 c-4 -6 -3 -16 3 -22 6 -6 12 -6 17 2 4 6 3 16 -3 22 -6 6
-12 6 -17 -2z"/>
<path d="M8056 4091 c-4 -7 -5 -15 -2 -18 9 -9 19 4 14 18 -4 11 -6 11 -12 0z"/>
<path d="M7971 4004 c0 -11 3 -14 6 -6 3 7 2 16 -1 19 -3 4 -6 -2 -5 -13z"/>
<path d="M7490 3936 c0 -15 4 -25 9 -22 10 7 9 31 -2 42 -4 4 -7 -5 -7 -20z"/>
<path d="M7466 3927 c3 -10 9 -15 12 -12 3 3 0 11 -7 18 -10 9 -11 8 -5 -6z"/>
<path d="M7807 3933 c-4 -3 -7 -11 -7 -17 0 -6 5 -5 12 2 6 6 9 14 7 17 -3 3
-9 2 -12 -2z"/>
<path d="M7670 3900 c-8 -5 -10 -10 -5 -10 6 0 17 5 25 10 8 5 11 10 5 10 -5
0 -17 -5 -25 -10z"/>
<path d="M7568 3893 c7 -3 16 -2 19 1 4 3 -2 6 -13 5 -11 0 -14 -3 -6 -6z"/>
<path d="M3101 4726 c-7 -8 -8 -17 -3 -20 6 -3 13 1 16 10 9 23 2 28 -13 10z"/>
<path d="M2345 4706 c10 -14 19 -26 22 -26 7 0 -17 39 -28 46 -6 3 -3 -5 6
-20z"/>
<path d="M2190 4683 c0 -4 5 -15 10 -23 8 -13 10 -13 10 2 0 9 -4 20 -10 23
-5 3 -10 3 -10 -2z"/>
<path d="M2304 4546 c-4 -10 -2 -22 4 -28 8 -8 13 -7 18 6 4 10 2 22 -4 28 -8
8 -13 7 -18 -6z"/>
<path d="M3115 4490 c3 -5 8 -10 11 -10 2 0 4 5 4 10 0 6 -5 10 -11 10 -5 0
-7 -4 -4 -10z"/>
<path d="M2275 4460 c21 -24 26 -25 19 -6 -3 8 -13 17 -22 21 -13 5 -13 2 3
-15z"/>
<path d="M2383 4414 c-8 -22 16 -47 33 -33 20 17 17 36 -7 42 -12 3 -22 0 -26
-9z"/>
<path d="M2426 4365 c-4 -12 -1 -16 11 -13 18 3 21 20 5 26 -5 1 -12 -4 -16
-13z"/>
<path d="M3117 4364 c-4 -4 -7 -14 -7 -23 0 -11 3 -12 11 -4 6 6 10 16 7 23
-2 6 -7 8 -11 4z"/>
<path d="M2333 4270 c11 -32 32 -70 40 -70 15 0 6 26 -19 55 -14 17 -23 23
-21 15z"/>
<path d="M2481 4254 c0 -11 3 -14 6 -6 3 7 2 16 -1 19 -3 4 -6 -2 -5 -13z"/>
<path d="M2440 4136 c0 -3 5 -17 12 -31 12 -27 44 -36 34 -9 -3 9 -6 17 -6 19
0 3 -9 9 -20 15 -11 6 -20 9 -20 6z"/>
<path d="M2626 4033 c-6 -14 -5 -15 5 -6 7 7 10 15 7 18 -3 3 -9 -2 -12 -12z"/>
<path d="M3630 4493 c0 -6 8 -17 18 -24 16 -13 16 -13 2 6 -8 11 -16 22 -17
24 -2 2 -3 0 -3 -6z"/>
<path d="M3640 4373 c0 -4 5 -15 10 -23 8 -13 10 -13 10 2 0 9 -4 20 -10 23
-5 3 -10 3 -10 -2z"/>
<path d="M4592 4463 c9 -10 13 -24 11 -30 -3 -7 1 -13 7 -13 8 0 10 8 7 21 -4
16 -2 19 11 15 13 -5 12 -3 -2 9 -11 8 -26 15 -34 15 -13 0 -13 -2 0 -17z"/>
<path d="M4611 4244 c0 -11 3 -14 6 -6 3 7 2 16 -1 19 -3 4 -6 -2 -5 -13z"/>
<path d="M5860 4391 c0 -5 5 -13 10 -16 6 -3 10 -2 10 4 0 5 -4 13 -10 16 -5
3 -10 2 -10 -4z"/>
<path d="M6260 4619 l0 -122 56 6 c74 8 127 48 132 98 2 19 10 38 18 42 8 4
14 13 14 19 0 7 -5 6 -14 -1 -12 -10 -18 -7 -30 18 -24 46 -53 61 -118 61
l-58 0 0 -121z"/>
<path d="M6924 4614 c-4 -11 -22 -59 -40 -108 -19 -48 -34 -89 -34 -90 0 -1
38 -2 85 -1 47 0 85 1 85 2 0 1 -14 44 -31 97 -32 100 -54 133 -65 100z"/>
<path d="M6160 4556 c0 -2 7 -9 15 -16 13 -11 14 -10 9 4 -5 14 -24 23 -24 12z"/>
<path d="M6143 4525 c-3 -9 -3 -18 -1 -21 3 -3 8 4 11 16 6 23 -1 27 -10 5z"/>
<path d="M7060 4470 c-13 -8 -12 -10 3 -10 9 0 17 5 17 10 0 12 -1 12 -20 0z"/>
<path d="M7070 4432 c0 -6 9 -12 20 -15 11 -3 20 -3 20 -1 0 2 -9 8 -20 14
-11 6 -20 7 -20 2z"/>
<path d="M7110 4341 c0 -17 18 -21 24 -6 3 9 0 15 -9 15 -8 0 -15 -4 -15 -9z"/>
<path d="M7090 4265 c-7 -9 -10 -18 -7 -21 3 -3 10 4 17 15 13 25 8 27 -10 6z"/>
<path d="M5701 3014 c0 -11 3 -14 6 -6 3 7 2 16 -1 19 -3 4 -6 -2 -5 -13z"/>
<path d="M4545 8109 c-4 -6 -5 -12 -2 -15 2 -3 7 2 10 11 7 17 1 20 -8 4z"/>
<path d="M4690 8010 c0 -5 7 -10 16 -10 8 0 12 5 9 10 -3 6 -10 10 -16 10 -5
0 -9 -4 -9 -10z"/>
<path d="M4740 8000 c0 -5 5 -10 11 -10 5 0 7 5 4 10 -3 6 -8 10 -11 10 -2 0
-4 -4 -4 -10z"/>
<path d="M4350 7955 c-7 -8 -8 -15 -2 -15 5 0 15 7 22 15 7 8 8 15 2 15 -5 0
-15 -7 -22 -15z"/>
<path d="M4616 7961 c-4 -7 -5 -15 -2 -18 9 -9 19 4 14 18 -4 11 -6 11 -12 0z"/>
<path d="M4445 7899 c-10 -15 3 -25 16 -12 7 7 7 13 1 17 -6 3 -14 1 -17 -5z"/>
<path d="M3750 7826 c0 -2 7 -7 16 -10 8 -3 12 -2 9 4 -6 10 -25 14 -25 6z"/>
<path d="M3798 7813 c7 -3 16 -2 19 1 4 3 -2 6 -13 5 -11 0 -14 -3 -6 -6z"/>
<path d="M3910 7807 c0 -10 8 -17 18 -17 9 0 13 4 7 8 -5 4 -13 11 -17 16 -5
5 -8 2 -8 -7z"/>
<path d="M4052 7779 c2 -7 10 -15 17 -17 8 -3 12 1 9 9 -2 7 -10 15 -17 17 -8
3 -12 -1 -9 -9z"/>
<path d="M4244 7782 c-16 -10 -29 -72 -15 -72 5 0 22 5 36 12 27 12 33 36 13
56 -14 14 -19 14 -34 4z"/>
<path d="M6810 7730 c-8 -5 -12 -11 -9 -14 2 -3 11 -1 19 4 8 5 12 11 9 14 -2
3 -11 1 -19 -4z"/>
<path d="M3995 7680 c4 -6 11 -8 16 -5 14 9 11 15 -7 15 -8 0 -12 -5 -9 -10z"/>
<path d="M4466 7675 c-3 -9 1 -18 10 -22 19 -7 28 2 21 22 -8 19 -23 19 -31 0z"/>
<path d="M4201 7621 c-10 -6 -10 -10 -1 -16 13 -8 24 -1 19 14 -3 6 -10 7 -18
2z"/>
<path d="M3655 7590 c-6 -10 19 -60 31 -60 8 0 -5 53 -16 63 -4 5 -11 4 -15
-3z"/>
<path d="M6240 7580 c-8 -5 -12 -11 -9 -14 2 -3 11 -1 19 4 8 5 12 11 9 14 -2
3 -11 1 -19 -4z"/>
<path d="M4527 7574 c-8 -9 11 -44 24 -44 6 0 9 10 7 22 -3 22 -19 34 -31 22z"/>
<path d="M6331 7517 c-13 -21 -12 -21 5 -5 10 10 16 20 13 22 -3 3 -11 -5 -18
-17z"/>
<path d="M3360 7526 c0 -2 8 -10 18 -17 15 -13 16 -12 3 4 -13 16 -21 21 -21
13z"/>
<path d="M2003 7485 c-3 -9 8 -50 24 -93 22 -60 33 -77 48 -77 14 0 21 8 24
25 4 30 -17 130 -31 148 -14 17 -57 15 -65 -3z"/>
<path d="M6116 7474 c-9 -22 3 -32 14 -14 12 19 12 30 1 30 -5 0 -12 -7 -15
-16z"/>
<path d="M7121 7464 c0 -11 3 -14 6 -6 3 7 2 16 -1 19 -3 4 -6 -2 -5 -13z"/>
<path d="M6770 7420 c0 -5 7 -10 15 -10 8 0 15 5 15 10 0 6 -7 10 -15 10 -8 0
-15 -4 -15 -10z"/>
<path d="M6912 7419 c2 -6 8 -10 13 -10 5 0 11 4 13 10 2 6 -4 11 -13 11 -9 0
-15 -5 -13 -11z"/>
<path d="M7010 7406 c0 -17 5 -26 16 -26 10 0 14 7 12 22 -5 32 -28 35 -28 4z"/>
<path d="M6045 7400 c3 -5 8 -10 11 -10 2 0 4 5 4 10 0 6 -5 10 -11 10 -5 0
-7 -4 -4 -10z"/>
<path d="M7127 7273 l17 -28 -21 18 c-16 14 -22 15 -25 5 -3 -7 2 -19 11 -26
14 -11 13 -12 -6 -7 -18 5 -22 3 -17 -9 3 -9 10 -16 15 -16 12 0 49 37 49 49
0 21 -13 41 -26 41 -12 0 -11 -5 3 -27z"/>
<path d="M7162 7275 c8 -17 15 -22 21 -16 7 7 6 15 -3 26 -20 24 -31 18 -18
-10z"/>
<path d="M7355 7269 c-11 -16 -1 -19 13 -3 7 8 8 14 3 14 -5 0 -13 -5 -16 -11z"/>
<path d="M7268 7193 c7 -3 16 -2 19 1 4 3 -2 6 -13 5 -11 0 -14 -3 -6 -6z"/>
<path d="M7094 7084 c-16 -39 -14 -50 11 -41 9 4 15 19 15 42 0 45 -7 44 -26
-1z"/>
<path d="M3200 7099 c0 -5 5 -7 10 -4 6 3 10 8 10 11 0 2 -4 4 -10 4 -5 0 -10
-5 -10 -11z"/>
<path d="M7451 7074 c0 -11 3 -14 6 -6 3 7 2 16 -1 19 -3 4 -6 -2 -5 -13z"/>
<path d="M6735 7051 c-9 -16 9 -20 23 -5 10 12 10 14 -2 14 -8 0 -17 -4 -21
-9z"/>
<path d="M7820 7033 c-24 -3 -49 -8 -55 -12 -12 -10 -93 -29 -156 -36 -25 -3
-56 -15 -67 -25 -12 -11 -27 -20 -33 -20 -11 0 -76 -44 -89 -60 -3 -3 -21 -18
-41 -33 -20 -15 -36 -32 -36 -39 0 -7 -4 -21 -8 -30 -4 -10 -3 -18 3 -18 6 0
7 -13 2 -35 -7 -33 -6 -35 12 -29 15 4 10 -5 -18 -35 -41 -43 -55 -48 -30 -9
15 23 15 25 -7 37 -13 7 -34 14 -48 16 -13 2 -36 7 -50 10 -36 9 -102 -19 -97
-42 2 -9 -7 -29 -20 -43 -13 -14 -28 -33 -33 -42 -8 -14 -6 -16 7 -11 15 6 15
3 -2 -25 -10 -18 -22 -32 -27 -32 -4 0 -5 5 -2 10 7 12 -28 14 -39 3 -4 -5
-12 -9 -17 -9 -5 -1 -13 -2 -18 -3 -5 0 -14 -15 -20 -32 -10 -29 -13 -31 -46
-25 -25 5 -35 3 -35 -6 0 -10 -3 -9 -9 1 -8 12 -12 12 -25 2 -11 -9 -16 -10
-16 -2 0 16 -33 13 -82 -8 -49 -21 -106 -67 -95 -77 8 -8 -16 -56 -36 -73 -8
-6 -25 -14 -37 -16 -30 -6 -61 -35 -58 -53 3 -13 -56 -82 -69 -82 -3 0 -11 -6
-17 -14 -6 -8 -29 -17 -51 -21 -22 -3 -58 -14 -80 -25 -62 -30 -164 -53 -212
-47 -25 3 -49 0 -60 -8 -23 -17 -52 -8 -48 15 2 10 0 31 -5 47 -8 26 -8 25 -9
-14 -1 -46 -25 -69 -61 -60 -11 3 -21 -1 -24 -9 -3 -8 -10 -14 -16 -14 -12 0
-20 -5 -70 -50 -23 -20 -31 -33 -22 -37 6 -2 9 -10 6 -16 -3 -7 4 -1 15 13 11
14 21 27 21 30 0 7 51 34 112 59 34 14 54 17 75 11 15 -4 22 -9 16 -9 -7 -1
-13 -6 -13 -12 0 -6 16 -1 37 11 28 16 38 18 44 9 4 -7 6 -16 3 -20 -5 -8 49
4 89 20 16 6 26 15 23 20 -3 5 1 12 10 15 29 11 27 6 -10 -30 l-37 -36 38 4
c22 3 51 12 65 22 14 9 39 18 56 19 16 1 28 5 25 10 -2 4 0 7 6 7 20 0 23 -22
5 -35 -11 -9 -14 -14 -6 -15 6 0 21 9 32 20 12 12 15 20 8 20 -9 0 -8 3 2 10
9 6 17 5 22 -3 5 -8 8 -8 8 -1 0 6 7 11 15 11 8 0 15 -4 15 -9 0 -4 5 -8 10
-8 6 0 10 7 10 15 0 8 5 15 10 15 6 0 10 -5 10 -12 0 -6 7 -3 16 8 8 10 13 13
9 7 -3 -7 0 -22 8 -34 14 -19 16 -19 25 -3 5 9 7 25 5 34 -3 13 3 19 24 23 35
7 47 -1 32 -19 -6 -8 -9 -17 -6 -21 4 -3 1 -11 -6 -17 -7 -6 -10 -10 -8 -8 3
1 17 -10 33 -25 23 -22 28 -24 28 -9 0 10 -8 32 -17 48 -14 23 -15 32 -5 35 6
3 12 12 13 21 0 14 2 13 9 -3 7 -17 9 -16 9 10 1 17 -6 43 -14 58 -14 28 -14
28 30 48 25 11 45 24 45 29 0 5 19 19 43 31 23 12 51 29 61 38 18 15 19 15 13
-1 -4 -13 2 -20 28 -28 38 -13 68 -3 84 29 6 11 40 28 87 42 67 21 79 28 90
55 21 49 98 124 122 117 15 -4 24 3 36 25 8 16 25 32 37 35 13 3 18 10 14 17
-6 9 -9 9 -15 0 -5 -8 -10 -9 -14 -2 -4 6 -13 9 -21 5 -11 -4 -13 -1 -9 12 5
12 14 15 31 10 14 -3 31 0 40 6 11 10 16 10 22 0 6 -9 10 -8 15 5 6 15 9 16
16 4 8 -12 10 -12 16 3 3 9 12 17 19 17 7 0 16 6 18 13 4 8 6 8 6 0 1 -11 -17
-28 -67 -62 -12 -9 -18 -21 -15 -35 4 -20 4 -20 -10 -3 -15 18 -16 18 -33 -8
-23 -35 -5 -58 25 -31 11 10 25 15 32 10 7 -4 10 -3 6 3 -4 6 0 16 8 23 8 7
15 9 15 6 0 -4 10 2 22 14 12 11 25 20 30 20 4 0 8 9 8 19 0 10 7 21 15 25 19
7 19 2 -1 -36 l-16 -30 25 18 c14 11 24 24 24 29 -1 6 7 9 19 8 12 -1 40 15
69 42 27 25 53 45 59 45 6 0 3 -7 -6 -14 -20 -15 -14 -26 14 -26 13 0 18 8 18
29 0 24 -3 28 -20 24 -12 -3 -20 0 -20 8 0 7 3 10 6 6 4 -3 15 4 25 16 10 12
18 17 19 10 0 -6 -6 -14 -12 -16 -10 -4 -10 -6 1 -6 7 -1 22 10 33 24 11 14
27 25 35 25 9 0 13 -3 10 -7 -4 -3 -2 -12 4 -20 9 -10 15 -10 25 -2 7 6 19 9
26 6 8 -4 7 -6 -4 -6 -18 -1 -24 -16 -10 -24 4 -2 1 -2 -5 -1 -19 5 -17 1 27
-71 22 -36 40 -70 40 -75 0 -6 4 -10 8 -10 4 0 8 9 8 20 0 11 -7 20 -16 20
-13 0 -13 2 -1 9 16 10 22 49 9 57 -4 3 -3 14 3 26 8 15 8 19 0 14 -6 -4 -11
-3 -11 3 0 5 5 13 10 16 6 4 7 11 4 17 -4 7 -2 8 4 4 22 -13 33 45 30 153 -3
119 2 112 -88 104z m-211 -326 c-2 -1 -13 -9 -24 -17 -19 -14 -19 -14 -6 3 7
9 18 17 24 17 6 0 8 -1 6 -3z m-1514 -687 c-3 -5 -11 -10 -16 -10 -6 0 -7 5
-4 10 3 6 11 10 16 10 6 0 7 -4 4 -10z m35 -5 c-7 -8 -18 -15 -24 -15 -6 0 -2
7 8 15 25 19 32 19 16 0z"/>
<path d="M3100 6991 c0 -13 28 -33 33 -23 3 4 -3 13 -14 20 -10 7 -19 8 -19 3z"/>
<path d="M7350 6988 c0 -9 5 -20 10 -23 13 -8 13 5 0 25 -8 13 -10 13 -10 -2z"/>
<path d="M6918 6938 c-3 -22 18 -58 34 -58 11 0 10 38 -2 61 -14 25 -28 24
-32 -3z"/>
<path d="M7100 6925 c0 -8 7 -15 16 -15 14 0 14 3 4 15 -7 8 -14 15 -16 15 -2
0 -4 -7 -4 -15z"/>
<path d="M3060 6881 c0 -6 5 -13 10 -16 6 -3 10 1 10 9 0 9 -4 16 -10 16 -5 0
-10 -4 -10 -9z"/>
<path d="M4480 6811 c0 -5 5 -13 10 -16 6 -3 10 -2 10 4 0 5 -4 13 -10 16 -5
3 -10 2 -10 -4z"/>
<path d="M6655 6794 c9 -9 18 -14 21 -11 9 9 -6 27 -22 27 -13 0 -13 -2 1 -16z"/>
<path d="M6697 6703 c-12 -11 -8 -23 8 -23 8 0 15 7 15 15 0 16 -12 20 -23 8z"/>
<path d="M6730 6695 c0 -8 7 -15 16 -15 14 0 14 3 4 15 -7 8 -14 15 -16 15 -2
0 -4 -7 -4 -15z"/>
<path d="M6935 6700 c-7 -12 2 -30 16 -30 5 0 9 9 9 20 0 21 -15 27 -25 10z"/>
<path d="M4339 6663 c-34 -9 -27 -73 8 -73 18 0 35 37 28 60 -6 20 -8 21 -36
13z"/>
<path d="M6023 6649 c3 -11 1 -22 -4 -25 -5 -3 -9 -14 -9 -24 0 -17 4 -18 26
-10 14 6 39 10 55 10 23 0 29 4 29 23 0 34 -11 42 -58 43 -38 1 -43 -1 -39
-17z"/>
<path d="M4253 6583 c-26 -9 -13 -33 17 -33 21 0 28 4 24 14 -7 17 -24 25 -41
19z"/>
<path d="M6212 6575 c-15 -17 -52 -20 -52 -4 0 5 -5 7 -10 4 -6 -4 -8 -11 -5
-16 9 -13 -9 -11 -23 3 -9 9 -13 7 -18 -6 -4 -9 -4 -20 0 -23 12 -12 46 -10
57 4 17 19 36 16 42 -7 5 -20 27 -28 27 -10 0 6 -5 10 -11 10 -5 0 -3 10 5 22
26 36 16 54 -12 23z"/>
<path d="M6993 6578 c-13 -6 -23 -15 -23 -20 0 -5 11 -1 25 8 37 24 35 30 -2
12z"/>
<path d="M7550 6580 c0 -5 7 -10 16 -10 8 0 12 5 9 10 -3 6 -10 10 -16 10 -5
0 -9 -4 -9 -10z"/>
<path d="M7644 6566 c11 -9 27 -16 35 -15 14 0 14 1 1 6 -8 3 -24 10 -35 15
-20 9 -20 9 -1 -6z"/>
<path d="M4126 6511 c-6 -37 -14 -46 -39 -42 -5 1 -7 -4 -4 -11 2 -7 11 -11
18 -9 8 2 27 4 42 4 27 0 28 2 22 36 -4 20 -12 42 -19 49 -11 11 -14 6 -20
-27z"/>
<path d="M5857 6529 c7 -7 15 -10 18 -7 3 3 -2 9 -12 12 -14 6 -15 5 -6 -5z"/>
<path d="M7200 6480 c0 -5 9 -10 20 -10 11 0 20 5 20 10 0 6 -9 10 -20 10 -11
0 -20 -4 -20 -10z"/>
<path d="M6364 6413 c-3 -10 -10 -26 -15 -35 -12 -23 -11 -28 4 -28 11 0 37
51 37 73 0 15 -21 6 -26 -10z"/>
<path d="M6038 6413 c-19 -5 -33 -33 -16 -33 6 0 8 -11 5 -27 -3 -17 0 -36 9
-47 13 -18 14 -15 14 35 0 30 5 60 12 67 12 12 7 13 -24 5z"/>
<path d="M7816 6375 c4 -8 11 -15 16 -15 6 0 5 6 -2 15 -7 8 -14 15 -16 15 -2
0 -1 -7 2 -15z"/>
<path d="M7756 6362 c-3 -6 -1 -14 5 -17 15 -10 25 3 12 16 -7 7 -13 7 -17 1z"/>
<path d="M7657 6343 c-12 -11 -8 -23 8 -23 8 0 15 7 15 15 0 16 -12 20 -23 8z"/>
<path d="M2675 6330 c-3 -5 3 -10 15 -10 12 0 18 5 15 10 -3 6 -10 10 -15 10
-5 0 -12 -4 -15 -10z"/>
<path d="M5800 6336 c0 -2 7 -6 15 -10 8 -3 15 -1 15 4 0 6 -7 10 -15 10 -8 0
-15 -2 -15 -4z"/>
<path d="M6277 6313 c-4 -3 -7 -11 -7 -17 0 -6 5 -5 12 2 6 6 9 14 7 17 -3 3
-9 2 -12 -2z"/>
<path d="M6195 6240 c3 -5 8 -10 11 -10 2 0 4 5 4 10 0 6 -5 10 -11 10 -5 0
-7 -4 -4 -10z"/>
<path d="M7585 6209 c-11 -17 1 -21 15 -4 8 9 8 15 2 15 -6 0 -14 -5 -17 -11z"/>
<path d="M6027 6173 c-3 -5 -1 -17 3 -28 7 -19 7 -19 18 2 7 12 12 24 12 27 0
9 -28 7 -33 -1z"/>
<path d="M7672 6150 c0 -14 2 -19 5 -12 2 6 2 18 0 25 -3 6 -5 1 -5 -13z"/>
<path d="M4461 6116 c-8 -9 -11 -19 -7 -23 9 -9 29 13 24 27 -2 8 -8 7 -17 -4z"/>
<path d="M7590 6020 c0 -5 5 -10 10 -10 6 0 10 5 10 10 0 6 -4 10 -10 10 -5 0
-10 -4 -10 -10z"/>
<path d="M4566 6005 c8 -21 44 -40 44 -24 0 12 -29 38 -42 39 -4 0 -5 -7 -2
-15z"/>
<path d="M5940 5980 c0 -5 7 -7 15 -4 8 4 15 8 15 10 0 2 -7 4 -15 4 -8 0 -15
-4 -15 -10z"/>
<path d="M4556 5957 c3 -10 9 -15 12 -12 3 3 0 11 -7 18 -10 9 -11 8 -5 -6z"/>
<path d="M4625 5930 c-3 -5 -1 -10 4 -10 6 0 11 5 11 10 0 6 -2 10 -4 10 -3 0
-8 -4 -11 -10z"/>
<path d="M5830 5920 c-13 -8 -12 -10 3 -10 9 0 17 5 17 10 0 12 -1 12 -20 0z"/>
<path d="M4260 5851 c0 -6 4 -13 10 -16 6 -3 7 1 4 9 -7 18 -14 21 -14 7z"/>
<path d="M8040 5784 c0 -8 5 -12 10 -9 6 3 10 10 10 16 0 5 -4 9 -10 9 -5 0
-10 -7 -10 -16z"/>
<path d="M2225 5740 c2 -27 15 -38 15 -12 0 11 -4 23 -8 26 -5 3 -8 -4 -7 -14z"/>
<path d="M5825 5640 c-3 -5 -1 -10 4 -10 6 0 11 5 11 10 0 6 -2 10 -4 10 -3 0
-8 -4 -11 -10z"/>
<path d="M4661 3634 c13 -16 29 -19 29 -5 0 5 -9 11 -21 14 -16 4 -18 3 -8 -9z"/>
<path d="M4585 3118 c5 -26 22 -44 32 -34 4 4 2 11 -6 15 -7 5 -12 11 -12 15
3 18 0 26 -8 26 -6 0 -8 -10 -6 -22z"/>
<path d="M7242 2749 c2 -7 10 -15 17 -17 8 -3 12 1 9 9 -2 7 -10 15 -17 17 -8
3 -12 -1 -9 -9z"/>
<path d="M3241 1948 c1 -52 13 -89 21 -67 8 21 -3 109 -13 109 -5 0 -9 -19 -8
-42z"/>
<path d="M6804 1794 c-21 -60 -68 -145 -85 -154 -22 -12 -79 -119 -79 -149 0
-30 58 -146 85 -169 14 -12 25 -27 25 -33 0 -6 13 -41 29 -77 15 -37 32 -76
36 -87 6 -17 11 -11 31 34 13 29 24 66 24 82 0 28 15 49 56 76 13 8 24 25 24
37 0 12 7 31 15 44 9 12 15 27 13 34 -1 7 4 28 11 46 13 31 12 35 -12 60 -14
15 -29 41 -33 57 -4 17 -24 46 -44 66 -21 20 -45 58 -55 85 -23 61 -32 73 -41
48z"/>
<path d="M3627 1793 c-2 -4 -10 -26 -17 -48 -7 -22 -21 -57 -32 -78 -17 -34
-17 -39 -3 -53 20 -21 9 -37 -16 -24 -11 6 -17 15 -14 21 4 5 2 9 -3 9 -15 0
-44 -49 -40 -68 2 -9 -5 -25 -15 -35 -13 -13 -17 -25 -11 -40 4 -12 7 -39 7
-60 -1 -33 1 -36 15 -25 12 11 16 11 20 0 2 -7 10 -18 18 -25 38 -31 44 -40
44 -60 0 -12 -4 -28 -9 -36 -6 -10 2 -35 26 -80 19 -36 37 -66 39 -66 10 0 57
121 58 149 1 22 9 34 31 46 23 13 30 24 28 44 -1 19 3 26 16 26 12 0 22 16 34
53 l17 54 -36 69 c-33 64 -60 98 -84 106 -6 2 -21 29 -34 61 -25 63 -32 73
-39 60z"/>
<path d="M7270 1738 c0 -32 11 -68 20 -68 10 0 19 47 13 71 -7 27 -33 24 -33
-3z"/>
<path d="M4820 1450 c0 -6 7 -10 15 -10 8 0 15 2 15 4 0 2 -7 6 -15 10 -8 3
-15 1 -15 -4z"/>
<path d="M4820 1419 c0 -5 5 -7 10 -4 6 3 10 8 10 11 0 2 -4 4 -10 4 -5 0 -10
-5 -10 -11z"/>
</g>
</svg>
